<svg width="1337" height="241" viewBox="0 0 1337 241" fill="none" xmlns="http://www.w3.org/2000/svg">
<path d="M28.344 225.568C28.344 225.856 28.608 226.096 28.92 226.096C29.208 226.096 29.4 225.928 29.52 225.64L31.488 221.296H41.4L43.368 225.616C43.488 225.88 43.704 226.096 43.992 226.096C44.328 226.096 44.592 225.832 44.592 225.52C44.592 225.4 44.568 225.28 44.496 225.136L37.344 209.632C37.176 209.272 36.936 209.032 36.504 209.032H36.456C36.024 209.032 35.784 209.272 35.616 209.632L28.44 225.184C28.368 225.328 28.344 225.472 28.344 225.568ZM32.016 220.168L36.456 210.448L40.872 220.168H32.016ZM50.9567 225.472C50.9567 225.808 51.2447 226.096 51.5807 226.096C51.9167 226.096 52.2047 225.808 52.2047 225.472V210.352H57.5807C57.8927 210.352 58.1567 210.088 58.1567 209.776C58.1567 209.464 57.8927 209.2 57.5807 209.2H45.5807C45.2687 209.2 45.0047 209.464 45.0047 209.776C45.0047 210.088 45.2687 210.352 45.5807 210.352H50.9567V225.472ZM68.2307 226.288C73.3187 226.288 76.7027 222.184 76.7027 217.6V217.552C76.7027 212.968 73.3667 208.912 68.2787 208.912C63.1907 208.912 59.8067 213.016 59.8067 217.6V217.648C59.8067 222.232 63.1427 226.288 68.2307 226.288ZM68.2787 225.16C64.1267 225.16 61.1027 221.752 61.1027 217.6V217.552C61.1027 213.4 64.0787 210.04 68.2307 210.04C72.3827 210.04 75.4067 213.448 75.4067 217.6V217.648C75.4067 221.8 72.4307 225.16 68.2787 225.16ZM80.9413 225.496C80.9413 225.832 81.2053 226.096 81.5413 226.096C81.8773 226.096 82.1413 225.832 82.1413 225.496V211.408L88.3093 220.384C88.4533 220.6 88.6213 220.696 88.8373 220.696C89.0533 220.696 89.2213 220.6 89.3653 220.384L95.5333 211.408V225.472C95.5333 225.808 95.8213 226.096 96.1573 226.096C96.4933 226.096 96.7813 225.808 96.7813 225.472V209.752C96.7813 209.416 96.4933 209.128 96.1573 209.128H96.0373C95.7733 209.128 95.5573 209.272 95.4133 209.488L88.8613 219.136L82.3093 209.488C82.1413 209.272 81.9493 209.128 81.6853 209.128H81.5653C81.2293 209.128 80.9413 209.416 80.9413 209.752V225.496Z" fill="#7B7B7B"/>
<path d="M330.496 228.496C330.496 228.832 330.76 229.096 331.096 229.096C331.432 229.096 331.696 228.832 331.696 228.496V214.408L337.864 223.384C338.008 223.6 338.176 223.696 338.392 223.696C338.608 223.696 338.776 223.6 338.92 223.384L345.088 214.408V228.472C345.088 228.808 345.376 229.096 345.712 229.096C346.048 229.096 346.336 228.808 346.336 228.472V212.752C346.336 212.416 346.048 212.128 345.712 212.128H345.592C345.328 212.128 345.112 212.272 344.968 212.488L338.416 222.136L331.864 212.488C331.696 212.272 331.504 212.128 331.24 212.128H331.12C330.784 212.128 330.496 212.416 330.496 212.752V228.496ZM359.012 229.288C364.1 229.288 367.484 225.184 367.484 220.6V220.552C367.484 215.968 364.148 211.912 359.06 211.912C353.972 211.912 350.588 216.016 350.588 220.6V220.648C350.588 225.232 353.924 229.288 359.012 229.288ZM359.06 228.16C354.908 228.16 351.884 224.752 351.884 220.6V220.552C351.884 216.4 354.86 213.04 359.012 213.04C363.164 213.04 366.188 216.448 366.188 220.6V220.648C366.188 224.8 363.212 228.16 359.06 228.16ZM371.723 228.376C371.723 228.712 372.011 229 372.347 229H382.355C382.667 229 382.931 228.736 382.931 228.424C382.931 228.112 382.667 227.848 382.355 227.848H372.971V212.728C372.971 212.392 372.683 212.104 372.347 212.104C372.011 212.104 371.723 212.392 371.723 212.728V228.376ZM387.206 229H398.174C398.486 229 398.75 228.736 398.75 228.424C398.75 228.112 398.486 227.848 398.174 227.848H387.83V221.104H396.974C397.286 221.104 397.55 220.84 397.55 220.528C397.55 220.216 397.286 219.952 396.974 219.952H387.83V213.352H398.054C398.366 213.352 398.63 213.088 398.63 212.776C398.63 212.464 398.366 212.2 398.054 212.2H387.206C386.87 212.2 386.582 212.488 386.582 212.824V228.376C386.582 228.712 386.87 229 387.206 229ZM410.268 229.288C413.076 229.288 414.924 228.256 416.628 226.672C416.724 226.576 416.82 226.432 416.82 226.24C416.82 225.928 416.532 225.64 416.22 225.64C416.028 225.64 415.884 225.736 415.788 225.832C414.204 227.344 412.596 228.16 410.316 228.16C406.308 228.16 403.212 224.848 403.212 220.6V220.552C403.212 216.328 406.26 213.04 410.292 213.04C412.644 213.04 414.252 213.952 415.644 215.224C415.74 215.32 415.908 215.392 416.076 215.392C416.412 215.392 416.724 215.104 416.724 214.768C416.724 214.552 416.604 214.384 416.484 214.264C414.852 212.872 413.1 211.912 410.316 211.912C405.468 211.912 401.916 215.848 401.916 220.6V220.648C401.916 225.472 405.468 229.288 410.268 229.288ZM427.003 229.264C431.083 229.264 433.891 226.696 433.891 221.872V212.728C433.891 212.392 433.603 212.104 433.267 212.104C432.931 212.104 432.643 212.392 432.643 212.728V222.016C432.643 226.072 430.459 228.136 427.051 228.136C423.499 228.136 421.363 225.856 421.363 221.896V212.728C421.363 212.392 421.075 212.104 420.739 212.104C420.403 212.104 420.115 212.392 420.115 212.728V222.016C420.115 226.72 422.971 229.264 427.003 229.264ZM438.613 228.376C438.613 228.712 438.901 229 439.237 229H449.245C449.557 229 449.821 228.736 449.821 228.424C449.821 228.112 449.557 227.848 449.245 227.848H439.861V212.728C439.861 212.392 439.573 212.104 439.237 212.104C438.901 212.104 438.613 212.392 438.613 212.728V228.376ZM454.097 229H465.065C465.377 229 465.641 228.736 465.641 228.424C465.641 228.112 465.377 227.848 465.065 227.848H454.721V221.104H463.865C464.177 221.104 464.441 220.84 464.441 220.528C464.441 220.216 464.177 219.952 463.865 219.952H454.721V213.352H464.945C465.257 213.352 465.521 213.088 465.521 212.776C465.521 212.464 465.257 212.2 464.945 212.2H454.097C453.761 212.2 453.473 212.488 453.473 212.824V228.376C453.473 228.712 453.761 229 454.097 229ZM475.239 229.24C478.479 229.24 480.807 227.368 480.807 224.656V224.608C480.807 222.16 479.175 220.768 475.287 219.976C471.303 219.16 470.391 218.08 470.391 216.304V216.256C470.391 214.504 472.023 213.088 474.495 213.088C476.199 213.088 477.663 213.544 479.127 214.672C479.247 214.768 479.391 214.816 479.535 214.816C479.871 214.816 480.159 214.528 480.159 214.192C480.159 213.952 480.015 213.784 479.895 213.688C478.359 212.536 476.799 211.96 474.543 211.96C471.423 211.96 469.143 213.88 469.143 216.376V216.424C469.143 218.968 470.775 220.336 474.807 221.152C478.623 221.92 479.559 222.952 479.559 224.728V224.776C479.559 226.696 477.831 228.112 475.311 228.112C473.007 228.112 471.327 227.44 469.647 225.928C469.551 225.856 469.407 225.784 469.239 225.784C468.903 225.784 468.615 226.072 468.615 226.408C468.615 226.624 468.735 226.792 468.855 226.888C470.751 228.448 472.719 229.24 475.239 229.24Z" fill="#7B7B7B"/>
<path d="M665.176 229.288C670.264 229.288 673.648 225.184 673.648 220.6V220.552C673.648 215.968 670.312 211.912 665.224 211.912C660.136 211.912 656.752 216.016 656.752 220.6V220.648C656.752 225.232 660.088 229.288 665.176 229.288ZM665.224 228.16C661.072 228.16 658.048 224.752 658.048 220.6V220.552C658.048 216.4 661.024 213.04 665.176 213.04C669.328 213.04 672.352 216.448 672.352 220.6V220.648C672.352 224.8 669.376 228.16 665.224 228.16ZM677.887 228.472C677.887 228.808 678.175 229.096 678.511 229.096C678.847 229.096 679.135 228.808 679.135 228.472V222.04H684.631L689.791 228.76C689.935 228.952 690.103 229.096 690.343 229.096C690.679 229.096 690.991 228.784 690.991 228.448C690.991 228.304 690.919 228.16 690.799 228.016L686.023 221.824C688.855 221.44 690.943 219.832 690.943 217.024V216.976C690.943 215.776 690.463 214.648 689.671 213.856C688.663 212.848 687.007 212.2 684.943 212.2H678.511C678.175 212.2 677.887 212.488 677.887 212.824V228.472ZM679.135 220.912V213.352H684.871C687.919 213.352 689.695 214.768 689.695 217.024V217.072C689.695 219.496 687.607 220.912 684.799 220.912H679.135ZM702.934 229.288C705.43 229.288 707.518 228.352 709.102 227.128C709.366 226.912 709.534 226.648 709.534 226.408V220.912C709.534 220.576 709.246 220.288 708.91 220.288H703.102C702.79 220.288 702.526 220.552 702.526 220.864C702.526 221.176 702.79 221.44 703.102 221.44H708.334V226.264C707.11 227.296 705.118 228.184 702.982 228.184C698.494 228.184 695.782 224.944 695.782 220.6V220.552C695.782 216.496 698.638 213.04 702.718 213.04C705.046 213.04 706.462 213.736 707.758 214.744C707.902 214.864 708.046 214.912 708.142 214.912C708.478 214.912 708.766 214.624 708.766 214.288C708.766 214.072 708.67 213.904 708.526 213.784C706.966 212.608 705.31 211.912 702.79 211.912C697.774 211.912 694.486 216.064 694.486 220.6V220.648C694.486 225.376 697.63 229.288 702.934 229.288ZM712.899 228.568C712.899 228.856 713.163 229.096 713.475 229.096C713.763 229.096 713.955 228.928 714.075 228.64L716.043 224.296H725.955L727.923 228.616C728.043 228.88 728.259 229.096 728.547 229.096C728.883 229.096 729.147 228.832 729.147 228.52C729.147 228.4 729.123 228.28 729.051 228.136L721.899 212.632C721.731 212.272 721.491 212.032 721.059 212.032H721.011C720.579 212.032 720.339 212.272 720.171 212.632L712.995 228.184C712.923 228.328 712.899 228.472 712.899 228.568ZM716.571 223.168L721.011 213.448L725.427 223.168H716.571ZM733.012 228.496C733.012 228.832 733.276 229.096 733.612 229.096C733.948 229.096 734.212 228.832 734.212 228.496V214.024L745.756 228.664C745.948 228.904 746.14 229.072 746.38 229.072H746.476C746.764 229.072 746.98 228.832 746.98 228.544V212.704C746.98 212.368 746.716 212.104 746.38 212.104C746.044 212.104 745.78 212.368 745.78 212.704V226.864L734.452 212.488C734.284 212.272 734.092 212.128 733.828 212.128H733.636C733.3 212.128 733.012 212.416 733.012 212.752V228.496ZM752.141 228.472C752.141 228.808 752.429 229.096 752.765 229.096C753.101 229.096 753.389 228.808 753.389 228.472V212.728C753.389 212.392 753.101 212.104 752.765 212.104C752.429 212.104 752.141 212.392 752.141 212.728V228.472ZM764.247 229.24C767.487 229.24 769.815 227.368 769.815 224.656V224.608C769.815 222.16 768.182 220.768 764.295 219.976C760.311 219.16 759.399 218.08 759.399 216.304V216.256C759.399 214.504 761.031 213.088 763.503 213.088C765.207 213.088 766.671 213.544 768.135 214.672C768.255 214.768 768.398 214.816 768.543 214.816C768.879 214.816 769.167 214.528 769.167 214.192C769.167 213.952 769.023 213.784 768.903 213.688C767.367 212.536 765.807 211.96 763.551 211.96C760.431 211.96 758.151 213.88 758.151 216.376V216.424C758.151 218.968 759.783 220.336 763.815 221.152C767.631 221.92 768.567 222.952 768.567 224.728V224.776C768.567 226.696 766.839 228.112 764.319 228.112C762.015 228.112 760.335 227.44 758.655 225.928C758.559 225.856 758.415 225.784 758.247 225.784C757.911 225.784 757.623 226.072 757.623 226.408C757.623 226.624 757.743 226.792 757.863 226.888C759.759 228.448 761.727 229.24 764.247 229.24ZM773.91 228.496C773.91 228.832 774.174 229.096 774.51 229.096C774.846 229.096 775.11 228.832 775.11 228.496V214.408L781.278 223.384C781.422 223.6 781.59 223.696 781.806 223.696C782.022 223.696 782.19 223.6 782.334 223.384L788.502 214.408V228.472C788.502 228.808 788.79 229.096 789.126 229.096C789.462 229.096 789.75 228.808 789.75 228.472V212.752C789.75 212.416 789.462 212.128 789.126 212.128H789.006C788.742 212.128 788.526 212.272 788.382 212.488L781.83 222.136L775.278 212.488C775.11 212.272 774.918 212.128 774.654 212.128H774.534C774.198 212.128 773.91 212.416 773.91 212.752V228.496ZM800.434 229.24C803.674 229.24 806.002 227.368 806.002 224.656V224.608C806.002 222.16 804.37 220.768 800.482 219.976C796.498 219.16 795.586 218.08 795.586 216.304V216.256C795.586 214.504 797.218 213.088 799.69 213.088C801.394 213.088 802.858 213.544 804.322 214.672C804.442 214.768 804.586 214.816 804.73 214.816C805.066 214.816 805.354 214.528 805.354 214.192C805.354 213.952 805.21 213.784 805.09 213.688C803.554 212.536 801.994 211.96 799.738 211.96C796.618 211.96 794.338 213.88 794.338 216.376V216.424C794.338 218.968 795.97 220.336 800.002 221.152C803.818 221.92 804.754 222.952 804.754 224.728V224.776C804.754 226.696 803.026 228.112 800.506 228.112C798.202 228.112 796.522 227.44 794.842 225.928C794.746 225.856 794.602 225.784 794.434 225.784C794.098 225.784 793.81 226.072 793.81 226.408C793.81 226.624 793.93 226.792 794.05 226.888C795.946 228.448 797.914 229.24 800.434 229.24Z" fill="#7B7B7B"/>
<path d="M946.152 228.472C946.152 228.808 946.44 229.096 946.776 229.096C947.112 229.096 947.4 228.808 947.4 228.472V213.352H952.776C953.088 213.352 953.352 213.088 953.352 212.776C953.352 212.464 953.088 212.2 952.776 212.2H940.776C940.464 212.2 940.2 212.464 940.2 212.776C940.2 213.088 940.464 213.352 940.776 213.352H946.152V228.472ZM957.683 229H968.651C968.963 229 969.227 228.736 969.227 228.424C969.227 228.112 968.963 227.848 968.651 227.848H958.307V221.104H967.451C967.763 221.104 968.027 220.84 968.027 220.528C968.027 220.216 967.763 219.952 967.451 219.952H958.307V213.352H968.531C968.843 213.352 969.107 213.088 969.107 212.776C969.107 212.464 968.843 212.2 968.531 212.2H957.683C957.347 212.2 957.059 212.488 957.059 212.824V228.376C957.059 228.712 957.347 229 957.683 229ZM973.137 228.496C973.137 228.832 973.401 229.096 973.737 229.096C974.073 229.096 974.337 228.832 974.337 228.496V214.408L980.505 223.384C980.649 223.6 980.817 223.696 981.033 223.696C981.249 223.696 981.417 223.6 981.561 223.384L987.729 214.408V228.472C987.729 228.808 988.017 229.096 988.353 229.096C988.689 229.096 988.977 228.808 988.977 228.472V212.752C988.977 212.416 988.689 212.128 988.353 212.128H988.233C987.969 212.128 987.753 212.272 987.609 212.488L981.057 222.136L974.505 212.488C974.337 212.272 974.145 212.128 973.881 212.128H973.761C973.425 212.128 973.137 212.416 973.137 212.752V228.496ZM993.973 228.472C993.973 228.808 994.261 229.096 994.597 229.096C994.933 229.096 995.221 228.808 995.221 228.472V222.736H999.757C1003.26 222.736 1006.31 220.912 1006.31 217.384V217.336C1006.31 214.096 1003.76 212.2 1000.07 212.2H994.597C994.261 212.2 993.973 212.488 993.973 212.824V228.472ZM995.221 221.584V213.352H999.973C1003 213.352 1005.06 214.744 1005.06 217.408V217.456C1005.06 219.952 1002.95 221.584 999.829 221.584H995.221ZM1010 228.376C1010 228.712 1010.29 229 1010.63 229H1020.64C1020.95 229 1021.21 228.736 1021.21 228.424C1021.21 228.112 1020.95 227.848 1020.64 227.848H1011.25V212.728C1011.25 212.392 1010.96 212.104 1010.63 212.104C1010.29 212.104 1010 212.392 1010 212.728V228.376ZM1023.71 228.568C1023.71 228.856 1023.98 229.096 1024.29 229.096C1024.58 229.096 1024.77 228.928 1024.89 228.64L1026.86 224.296H1036.77L1038.74 228.616C1038.86 228.88 1039.07 229.096 1039.36 229.096C1039.7 229.096 1039.96 228.832 1039.96 228.52C1039.96 228.4 1039.94 228.28 1039.86 228.136L1032.71 212.632C1032.54 212.272 1032.3 212.032 1031.87 212.032H1031.82C1031.39 212.032 1031.15 212.272 1030.98 212.632L1023.81 228.184C1023.74 228.328 1023.71 228.472 1023.71 228.568ZM1027.38 223.168L1031.82 213.448L1036.24 223.168H1027.38ZM1046.32 228.472C1046.32 228.808 1046.61 229.096 1046.95 229.096C1047.28 229.096 1047.57 228.808 1047.57 228.472V213.352H1052.95C1053.26 213.352 1053.52 213.088 1053.52 212.776C1053.52 212.464 1053.26 212.2 1052.95 212.2H1040.95C1040.64 212.2 1040.37 212.464 1040.37 212.776C1040.37 213.088 1040.64 213.352 1040.95 213.352H1046.32V228.472ZM1057.85 229H1068.82C1069.13 229 1069.4 228.736 1069.4 228.424C1069.4 228.112 1069.13 227.848 1068.82 227.848H1058.48V221.104H1067.62C1067.93 221.104 1068.2 220.84 1068.2 220.528C1068.2 220.216 1067.93 219.952 1067.62 219.952H1058.48V213.352H1068.7C1069.01 213.352 1069.28 213.088 1069.28 212.776C1069.28 212.464 1069.01 212.2 1068.7 212.2H1057.85C1057.52 212.2 1057.23 212.488 1057.23 212.824V228.376C1057.23 228.712 1057.52 229 1057.85 229ZM1079 229.24C1082.24 229.24 1084.56 227.368 1084.56 224.656V224.608C1084.56 222.16 1082.93 220.768 1079.04 219.976C1075.06 219.16 1074.15 218.08 1074.15 216.304V216.256C1074.15 214.504 1075.78 213.088 1078.25 213.088C1079.96 213.088 1081.42 213.544 1082.88 214.672C1083 214.768 1083.15 214.816 1083.29 214.816C1083.63 214.816 1083.92 214.528 1083.92 214.192C1083.92 213.952 1083.77 213.784 1083.65 213.688C1082.12 212.536 1080.56 211.96 1078.3 211.96C1075.18 211.96 1072.9 213.88 1072.9 216.376V216.424C1072.9 218.968 1074.53 220.336 1078.56 221.152C1082.38 221.92 1083.32 222.952 1083.32 224.728V224.776C1083.32 226.696 1081.59 228.112 1079.07 228.112C1076.76 228.112 1075.08 227.44 1073.4 225.928C1073.31 225.856 1073.16 225.784 1073 225.784C1072.66 225.784 1072.37 226.072 1072.37 226.408C1072.37 226.624 1072.49 226.792 1072.61 226.888C1074.51 228.448 1076.48 229.24 1079 229.24Z" fill="#7B7B7B"/>
<path d="M1239.5 228.472C1239.5 228.808 1239.78 229.096 1240.12 229.096C1240.46 229.096 1240.74 228.808 1240.74 228.472V222.736H1245.28C1248.78 222.736 1251.83 220.912 1251.83 217.384V217.336C1251.83 214.096 1249.29 212.2 1245.59 212.2H1240.12C1239.78 212.2 1239.5 212.488 1239.5 212.824V228.472ZM1240.74 221.584V213.352H1245.5C1248.52 213.352 1250.58 214.744 1250.58 217.408V217.456C1250.58 219.952 1248.47 221.584 1245.35 221.584H1240.74ZM1252.69 228.568C1252.69 228.856 1252.95 229.096 1253.26 229.096C1253.55 229.096 1253.74 228.928 1253.86 228.64L1255.83 224.296H1265.74L1267.71 228.616C1267.83 228.88 1268.05 229.096 1268.34 229.096C1268.67 229.096 1268.94 228.832 1268.94 228.52C1268.94 228.4 1268.91 228.28 1268.84 228.136L1261.69 212.632C1261.52 212.272 1261.28 212.032 1260.85 212.032H1260.8C1260.37 212.032 1260.13 212.272 1259.96 212.632L1252.78 228.184C1252.71 228.328 1252.69 228.472 1252.69 228.568ZM1256.36 223.168L1260.8 213.448L1265.22 223.168H1256.36ZM1279.54 229.288C1282.04 229.288 1284.13 228.352 1285.71 227.128C1285.98 226.912 1286.14 226.648 1286.14 226.408V220.912C1286.14 220.576 1285.86 220.288 1285.52 220.288H1279.71C1279.4 220.288 1279.14 220.552 1279.14 220.864C1279.14 221.176 1279.4 221.44 1279.71 221.44H1284.94V226.264C1283.72 227.296 1281.73 228.184 1279.59 228.184C1275.1 228.184 1272.39 224.944 1272.39 220.6V220.552C1272.39 216.496 1275.25 213.04 1279.33 213.04C1281.66 213.04 1283.07 213.736 1284.37 214.744C1284.51 214.864 1284.66 214.912 1284.75 214.912C1285.09 214.912 1285.38 214.624 1285.38 214.288C1285.38 214.072 1285.28 213.904 1285.14 213.784C1283.58 212.608 1281.92 211.912 1279.4 211.912C1274.38 211.912 1271.1 216.064 1271.1 220.6V220.648C1271.1 225.376 1274.24 229.288 1279.54 229.288ZM1291.28 229H1302.25C1302.56 229 1302.83 228.736 1302.83 228.424C1302.83 228.112 1302.56 227.848 1302.25 227.848H1291.91V221.104H1301.05C1301.36 221.104 1301.63 220.84 1301.63 220.528C1301.63 220.216 1301.36 219.952 1301.05 219.952H1291.91V213.352H1302.13C1302.44 213.352 1302.71 213.088 1302.71 212.776C1302.71 212.464 1302.44 212.2 1302.13 212.2H1291.28C1290.95 212.2 1290.66 212.488 1290.66 212.824V228.376C1290.66 228.712 1290.95 229 1291.28 229ZM1312.43 229.24C1315.67 229.24 1317.99 227.368 1317.99 224.656V224.608C1317.99 222.16 1316.36 220.768 1312.47 219.976C1308.49 219.16 1307.58 218.08 1307.58 216.304V216.256C1307.58 214.504 1309.21 213.088 1311.68 213.088C1313.39 213.088 1314.85 213.544 1316.31 214.672C1316.43 214.768 1316.58 214.816 1316.72 214.816C1317.06 214.816 1317.35 214.528 1317.35 214.192C1317.35 213.952 1317.2 213.784 1317.08 213.688C1315.55 212.536 1313.99 211.96 1311.73 211.96C1308.61 211.96 1306.33 213.88 1306.33 216.376V216.424C1306.33 218.968 1307.96 220.336 1311.99 221.152C1315.81 221.92 1316.75 222.952 1316.75 224.728V224.776C1316.75 226.696 1315.02 228.112 1312.5 228.112C1310.19 228.112 1308.51 227.44 1306.83 225.928C1306.74 225.856 1306.59 225.784 1306.43 225.784C1306.09 225.784 1305.8 226.072 1305.8 226.408C1305.8 226.624 1305.92 226.792 1306.04 226.888C1307.94 228.448 1309.91 229.24 1312.43 229.24Z" fill="#7B7B7B"/>
<path d="M102.5 73.5C102.5 88.387 89.7655 100.5 74 100.5C58.2345 100.5 45.5 88.387 45.5 73.5C45.5 58.613 58.2345 46.5 74 46.5C89.7655 46.5 102.5 58.613 102.5 73.5Z" fill="#C4C4C4" stroke="white"/>
<path d="M373.5 114.5C373.5 122.769 366.575 129.5 358 129.5C349.425 129.5 342.5 122.769 342.5 114.5C342.5 106.231 349.425 99.5 358 99.5C366.575 99.5 373.5 106.231 373.5 114.5Z" fill="#C4C4C4" stroke="white"/>
<circle cx="73.5" cy="73.5" r="68.5" stroke="#C4C4C4" stroke-width="10"/>
<path d="M412.5 46.5C412.5 54.7694 405.575 61.5 397 61.5C388.425 61.5 381.5 54.7694 381.5 46.5C381.5 38.2306 388.425 31.5 397 31.5C405.575 31.5 412.5 38.2306 412.5 46.5Z" fill="#C4C4C4" stroke="white"/>
<path d="M686.796 31C686.796 35.7053 683.071 39.5 678.501 39.5C673.93 39.5 670.205 35.7053 670.205 31C670.205 26.2947 673.93 22.5 678.501 22.5C683.071 22.5 686.796 26.2947 686.796 31Z" fill="#C4C4C4" stroke="white"/>
<g filter="url(#filter0_d_213_15)">
<circle cx="678.5" cy="30.5" r="19" stroke="#C4C4C4" stroke-width="5" shape-rendering="crispEdges"/>
</g>
<path d="M733.796 31C733.796 35.7053 730.071 39.5 725.501 39.5C720.93 39.5 717.205 35.7053 717.205 31C717.205 26.2947 720.93 22.5 725.501 22.5C730.071 22.5 733.796 26.2947 733.796 31Z" fill="#C4C4C4" stroke="white"/>
<g filter="url(#filter1_d_213_15)">
<circle cx="725.5" cy="30.5" r="19" stroke="#C4C4C4" stroke-width="5" shape-rendering="crispEdges"/>
</g>
<path d="M780.796 31C780.796 35.7053 777.071 39.5 772.501 39.5C767.93 39.5 764.205 35.7053 764.205 31C764.205 26.2947 767.93 22.5 772.501 22.5C777.071 22.5 780.796 26.2947 780.796 31Z" fill="#C4C4C4" stroke="white"/>
<g filter="url(#filter2_d_213_15)">
<circle cx="772.5" cy="30.5" r="19" stroke="#C4C4C4" stroke-width="5" shape-rendering="crispEdges"/>
</g>
<path d="M686.796 78C686.796 82.7053 683.071 86.5 678.501 86.5C673.93 86.5 670.205 82.7053 670.205 78C670.205 73.2947 673.93 69.5 678.501 69.5C683.071 69.5 686.796 73.2947 686.796 78Z" fill="#C4C4C4" stroke="white"/>
<g filter="url(#filter3_d_213_15)">
<circle cx="678.5" cy="77.5" r="19" stroke="#C4C4C4" stroke-width="5" shape-rendering="crispEdges"/>
</g>
<path d="M733.796 78C733.796 82.7053 730.071 86.5 725.501 86.5C720.93 86.5 717.205 82.7053 717.205 78C717.205 73.2947 720.93 69.5 725.501 69.5C730.071 69.5 733.796 73.2947 733.796 78Z" fill="#C4C4C4" stroke="white"/>
<g filter="url(#filter4_d_213_15)">
<circle cx="725.5" cy="77.5" r="19" stroke="#C4C4C4" stroke-width="5" shape-rendering="crispEdges"/>
</g>
<path d="M780.796 78C780.796 82.7053 777.071 86.5 772.501 86.5C767.93 86.5 764.205 82.7053 764.205 78C764.205 73.2947 767.93 69.5 772.501 69.5C777.071 69.5 780.796 73.2947 780.796 78Z" fill="#C4C4C4" stroke="white"/>
<g filter="url(#filter5_d_213_15)">
<circle cx="772.5" cy="77.5" r="19" stroke="#C4C4C4" stroke-width="5" shape-rendering="crispEdges"/>
</g>
<path d="M686.796 124C686.796 128.705 683.071 132.5 678.501 132.5C673.93 132.5 670.205 128.705 670.205 124C670.205 119.295 673.93 115.5 678.501 115.5C683.071 115.5 686.796 119.295 686.796 124Z" fill="#C4C4C4" stroke="white"/>
<g filter="url(#filter6_d_213_15)">
<circle cx="678.5" cy="123.5" r="19" stroke="#C4C4C4" stroke-width="5" shape-rendering="crispEdges"/>
</g>
<path d="M733.796 124C733.796 128.705 730.071 132.5 725.501 132.5C720.93 132.5 717.205 128.705 717.205 124C717.205 119.295 720.93 115.5 725.501 115.5C730.071 115.5 733.796 119.295 733.796 124Z" fill="#C4C4C4" stroke="white"/>
<g filter="url(#filter7_d_213_15)">
<circle cx="725.5" cy="123.5" r="19" stroke="#C4C4C4" stroke-width="5" shape-rendering="crispEdges"/>
</g>
<path d="M780.796 124C780.796 128.705 777.071 132.5 772.501 132.5C767.93 132.5 764.205 128.705 764.205 124C764.205 119.295 767.93 115.5 772.501 115.5C777.071 115.5 780.796 119.295 780.796 124Z" fill="#C4C4C4" stroke="white"/>
<g filter="url(#filter8_d_213_15)">
<circle cx="772.5" cy="123.5" r="19" stroke="#C4C4C4" stroke-width="5" shape-rendering="crispEdges"/>
</g>
<path d="M451.5 112.5C451.5 120.769 444.575 127.5 436 127.5C427.425 127.5 420.5 120.769 420.5 112.5C420.5 104.231 427.425 97.5 436 97.5C444.575 97.5 451.5 104.231 451.5 112.5Z" fill="#C4C4C4" stroke="white"/>
<circle cx="358" cy="114" r="35.5" stroke="#C4C4C4" stroke-width="5"/>
<circle cx="397" cy="46" r="35.5" stroke="#C4C4C4" stroke-width="5"/>
<circle cx="436" cy="112" r="35.5" stroke="#C4C4C4" stroke-width="5"/>
<path d="M143 39C143 45.5618 137.47 51 130.5 51C123.53 51 118 45.5618 118 39C118 32.4382 123.53 27 130.5 27C137.47 27 143 32.4382 143 39Z" fill="#C4C4C4" stroke="white" stroke-width="4"/>
<line x1="373.324" y1="80.3039" x2="378.272" y2="74.1859" stroke="#C4C4C4" stroke-width="10" stroke-linecap="round"/>
<line x1="394.103" y1="109.105" x2="401.969" y2="109.269" stroke="#C4C4C4" stroke-width="10" stroke-linecap="round"/>
<line x1="420.519" y1="80.6655" x2="415.024" y2="75.0348" stroke="#C4C4C4" stroke-width="10" stroke-linecap="round"/>
<rect x="964" y="11" width="104" height="132" rx="8" stroke="#C4C4C4" stroke-width="4"/>
<rect x="1007" y="18" width="53" height="34" rx="5" fill="#C4C4C4"/>
<rect x="968" y="59" width="92" height="21" rx="5" fill="#C4C4C4"/>
<rect x="968" y="88" width="92" height="12" rx="5" fill="#C4C4C4"/>
<rect x="968" y="105" width="92" height="12" rx="5" fill="#C4C4C4"/>
<rect x="968" y="122" width="92" height="12" rx="5" fill="#C4C4C4"/>
<rect x="1248" y="11" width="87" height="104" rx="8" stroke="#C4C4C4" stroke-width="4"/>
<g clip-path="url(#clip0_213_15)">
<path d="M997.751 23.4345L986.353 37.0824L985.768 36.8099L987.228 30.3769C986.988 30.3254 986.743 30.3016 986.498 30.3058C983.466 30.3058 981.367 32.6916 981.367 35.5892V35.6438C981.367 38.5505 983.522 40.9674 986.536 40.9674C989.549 40.9674 991.646 38.6022 991.646 35.7052V35.6523C991.651 35.129 991.576 34.608 991.427 34.1066L994.622 31.5998C995.248 32.8396 995.574 34.2089 995.575 35.5976V35.6522C995.575 40.4679 991.756 44.4283 986.493 44.4283C981.23 44.4283 977.461 40.5215 977.461 35.704V35.6511C977.458 30.8131 981.273 26.869 986.534 26.869C987.028 26.8716 987.522 26.9018 988.013 26.9593L989.784 19.33C985.877 18.5355 981.816 19.1812 978.349 21.148C974.882 23.1147 972.243 26.2696 970.921 30.03C969.599 33.7904 969.682 37.9022 971.155 41.6061C972.628 45.31 975.392 48.3558 978.935 50.1809C982.479 52.0059 986.564 52.4871 990.434 51.5354C994.305 50.5838 997.701 48.2636 999.994 45.0034C1002.29 41.7432 1003.32 37.7632 1002.91 33.7985C1002.5 29.8338 1000.67 26.1522 997.751 23.4336L997.751 23.4345Z" fill="#C4C4C4"/>
</g>
<rect x="1233" y="41" width="80" height="102" rx="8" fill="#FDFAFA" stroke="#C4C4C4" stroke-width="4"/>
<g clip-path="url(#clip1_213_15)">
<path d="M1289.52 75.3158L1273.29 94.7538L1272.46 94.3657L1274.54 85.2036C1274.2 85.1302 1273.85 85.0962 1273.5 85.1023C1269.18 85.1023 1266.19 88.5002 1266.19 92.6271V92.7048C1266.19 96.8447 1269.26 100.287 1273.55 100.287C1277.84 100.287 1280.83 96.9183 1280.83 92.7923V92.717C1280.84 91.9717 1280.73 91.2297 1280.52 90.5156L1285.07 86.9453C1285.96 88.7111 1286.42 90.6612 1286.42 92.6391V92.7168C1286.42 99.5756 1280.99 105.216 1273.49 105.216C1265.99 105.216 1260.63 99.6518 1260.63 92.7906V92.7153C1260.62 85.8248 1266.06 80.2075 1273.55 80.2075C1274.25 80.2112 1274.96 80.2541 1275.65 80.336L1278.18 69.47C1272.61 68.3384 1266.83 69.2582 1261.89 72.0593C1256.95 74.8604 1253.19 79.3538 1251.31 84.7095C1249.43 90.0652 1249.55 95.9214 1251.64 101.197C1253.74 106.472 1257.68 110.81 1262.73 113.409C1267.77 116.009 1273.59 116.694 1279.1 115.338C1284.62 113.983 1289.45 110.678 1292.72 106.035C1295.99 101.392 1297.46 95.7234 1296.87 90.0767C1296.29 84.43 1293.68 79.1865 1289.52 75.3146L1289.52 75.3158Z" fill="#C4C4C4"/>
</g>
<defs>
<filter id="filter0_d_213_15" x="653" y="9" width="51" height="51" filterUnits="userSpaceOnUse" color-interpolation-filters="sRGB">
<feFlood flood-opacity="0" result="BackgroundImageFix"/>
<feColorMatrix in="SourceAlpha" type="matrix" values="0 0 0 0 0 0 0 0 0 0 0 0 0 0 0 0 0 0 127 0" result="hardAlpha"/>
<feOffset dy="4"/>
<feGaussianBlur stdDeviation="2"/>
<feComposite in2="hardAlpha" operator="out"/>
<feColorMatrix type="matrix" values="0 0 0 0 0 0 0 0 0 0 0 0 0 0 0 0 0 0 0.25 0"/>
<feBlend mode="normal" in2="BackgroundImageFix" result="effect1_dropShadow_213_15"/>
<feBlend mode="normal" in="SourceGraphic" in2="effect1_dropShadow_213_15" result="shape"/>
</filter>
<filter id="filter1_d_213_15" x="700" y="9" width="51" height="51" filterUnits="userSpaceOnUse" color-interpolation-filters="sRGB">
<feFlood flood-opacity="0" result="BackgroundImageFix"/>
<feColorMatrix in="SourceAlpha" type="matrix" values="0 0 0 0 0 0 0 0 0 0 0 0 0 0 0 0 0 0 127 0" result="hardAlpha"/>
<feOffset dy="4"/>
<feGaussianBlur stdDeviation="2"/>
<feComposite in2="hardAlpha" operator="out"/>
<feColorMatrix type="matrix" values="0 0 0 0 0 0 0 0 0 0 0 0 0 0 0 0 0 0 0.25 0"/>
<feBlend mode="normal" in2="BackgroundImageFix" result="effect1_dropShadow_213_15"/>
<feBlend mode="normal" in="SourceGraphic" in2="effect1_dropShadow_213_15" result="shape"/>
</filter>
<filter id="filter2_d_213_15" x="747" y="9" width="51" height="51" filterUnits="userSpaceOnUse" color-interpolation-filters="sRGB">
<feFlood flood-opacity="0" result="BackgroundImageFix"/>
<feColorMatrix in="SourceAlpha" type="matrix" values="0 0 0 0 0 0 0 0 0 0 0 0 0 0 0 0 0 0 127 0" result="hardAlpha"/>
<feOffset dy="4"/>
<feGaussianBlur stdDeviation="2"/>
<feComposite in2="hardAlpha" operator="out"/>
<feColorMatrix type="matrix" values="0 0 0 0 0 0 0 0 0 0 0 0 0 0 0 0 0 0 0.25 0"/>
<feBlend mode="normal" in2="BackgroundImageFix" result="effect1_dropShadow_213_15"/>
<feBlend mode="normal" in="SourceGraphic" in2="effect1_dropShadow_213_15" result="shape"/>
</filter>
<filter id="filter3_d_213_15" x="653" y="56" width="51" height="51" filterUnits="userSpaceOnUse" color-interpolation-filters="sRGB">
<feFlood flood-opacity="0" result="BackgroundImageFix"/>
<feColorMatrix in="SourceAlpha" type="matrix" values="0 0 0 0 0 0 0 0 0 0 0 0 0 0 0 0 0 0 127 0" result="hardAlpha"/>
<feOffset dy="4"/>
<feGaussianBlur stdDeviation="2"/>
<feComposite in2="hardAlpha" operator="out"/>
<feColorMatrix type="matrix" values="0 0 0 0 0 0 0 0 0 0 0 0 0 0 0 0 0 0 0.25 0"/>
<feBlend mode="normal" in2="BackgroundImageFix" result="effect1_dropShadow_213_15"/>
<feBlend mode="normal" in="SourceGraphic" in2="effect1_dropShadow_213_15" result="shape"/>
</filter>
<filter id="filter4_d_213_15" x="700" y="56" width="51" height="51" filterUnits="userSpaceOnUse" color-interpolation-filters="sRGB">
<feFlood flood-opacity="0" result="BackgroundImageFix"/>
<feColorMatrix in="SourceAlpha" type="matrix" values="0 0 0 0 0 0 0 0 0 0 0 0 0 0 0 0 0 0 127 0" result="hardAlpha"/>
<feOffset dy="4"/>
<feGaussianBlur stdDeviation="2"/>
<feComposite in2="hardAlpha" operator="out"/>
<feColorMatrix type="matrix" values="0 0 0 0 0 0 0 0 0 0 0 0 0 0 0 0 0 0 0.25 0"/>
<feBlend mode="normal" in2="BackgroundImageFix" result="effect1_dropShadow_213_15"/>
<feBlend mode="normal" in="SourceGraphic" in2="effect1_dropShadow_213_15" result="shape"/>
</filter>
<filter id="filter5_d_213_15" x="747" y="56" width="51" height="51" filterUnits="userSpaceOnUse" color-interpolation-filters="sRGB">
<feFlood flood-opacity="0" result="BackgroundImageFix"/>
<feColorMatrix in="SourceAlpha" type="matrix" values="0 0 0 0 0 0 0 0 0 0 0 0 0 0 0 0 0 0 127 0" result="hardAlpha"/>
<feOffset dy="4"/>
<feGaussianBlur stdDeviation="2"/>
<feComposite in2="hardAlpha" operator="out"/>
<feColorMatrix type="matrix" values="0 0 0 0 0 0 0 0 0 0 0 0 0 0 0 0 0 0 0.25 0"/>
<feBlend mode="normal" in2="BackgroundImageFix" result="effect1_dropShadow_213_15"/>
<feBlend mode="normal" in="SourceGraphic" in2="effect1_dropShadow_213_15" result="shape"/>
</filter>
<filter id="filter6_d_213_15" x="653" y="102" width="51" height="51" filterUnits="userSpaceOnUse" color-interpolation-filters="sRGB">
<feFlood flood-opacity="0" result="BackgroundImageFix"/>
<feColorMatrix in="SourceAlpha" type="matrix" values="0 0 0 0 0 0 0 0 0 0 0 0 0 0 0 0 0 0 127 0" result="hardAlpha"/>
<feOffset dy="4"/>
<feGaussianBlur stdDeviation="2"/>
<feComposite in2="hardAlpha" operator="out"/>
<feColorMatrix type="matrix" values="0 0 0 0 0 0 0 0 0 0 0 0 0 0 0 0 0 0 0.25 0"/>
<feBlend mode="normal" in2="BackgroundImageFix" result="effect1_dropShadow_213_15"/>
<feBlend mode="normal" in="SourceGraphic" in2="effect1_dropShadow_213_15" result="shape"/>
</filter>
<filter id="filter7_d_213_15" x="700" y="102" width="51" height="51" filterUnits="userSpaceOnUse" color-interpolation-filters="sRGB">
<feFlood flood-opacity="0" result="BackgroundImageFix"/>
<feColorMatrix in="SourceAlpha" type="matrix" values="0 0 0 0 0 0 0 0 0 0 0 0 0 0 0 0 0 0 127 0" result="hardAlpha"/>
<feOffset dy="4"/>
<feGaussianBlur stdDeviation="2"/>
<feComposite in2="hardAlpha" operator="out"/>
<feColorMatrix type="matrix" values="0 0 0 0 0 0 0 0 0 0 0 0 0 0 0 0 0 0 0.25 0"/>
<feBlend mode="normal" in2="BackgroundImageFix" result="effect1_dropShadow_213_15"/>
<feBlend mode="normal" in="SourceGraphic" in2="effect1_dropShadow_213_15" result="shape"/>
</filter>
<filter id="filter8_d_213_15" x="747" y="102" width="51" height="51" filterUnits="userSpaceOnUse" color-interpolation-filters="sRGB">
<feFlood flood-opacity="0" result="BackgroundImageFix"/>
<feColorMatrix in="SourceAlpha" type="matrix" values="0 0 0 0 0 0 0 0 0 0 0 0 0 0 0 0 0 0 127 0" result="hardAlpha"/>
<feOffset dy="4"/>
<feGaussianBlur stdDeviation="2"/>
<feComposite in2="hardAlpha" operator="out"/>
<feColorMatrix type="matrix" values="0 0 0 0 0 0 0 0 0 0 0 0 0 0 0 0 0 0 0.25 0"/>
<feBlend mode="normal" in2="BackgroundImageFix" result="effect1_dropShadow_213_15"/>
<feBlend mode="normal" in="SourceGraphic" in2="effect1_dropShadow_213_15" result="shape"/>
</filter>
<clipPath id="clip0_213_15">
<rect width="33" height="33" fill="white" transform="translate(970 19)"/>
</clipPath>
<clipPath id="clip1_213_15">
<rect width="47" height="47" fill="white" transform="translate(1250 69)"/>
</clipPath>
</defs>
</svg>
