<svg width="1081" height="810" viewBox="0 0 1081 810" fill="none" xmlns="http://www.w3.org/2000/svg">
<ellipse cx="683" cy="589.5" rx="75" ry="24.5" fill="#C4C4C4" fill-opacity="0.08"/>
<path opacity="0.1" d="M869.712 119.13C875.333 125.991 877.497 135.639 879.917 144.709C899.405 217.806 947.426 276.6 1002.11 318.597C1025.27 336.386 1053.47 360.242 1048.4 392.137C1045.67 409.266 1033.71 421.875 1024.81 435.826C1006.16 465.037 1000.1 504.743 1009 539.712C1019.11 579.501 1047.38 616.627 1038.63 656.858C1033.23 681.623 1014.92 699.247 997.304 714.395C969.83 738.01 941.481 760.133 912.257 780.763C892.666 794.59 871.825 808.045 848.994 809.799C828.891 811.347 809.198 803.66 790.11 796.076C773.433 789.441 756.335 782.538 742.868 769.248C734.078 760.57 727.073 749.374 717.309 742.275C694.375 725.6 664.918 736.167 638.62 743.307C576.567 760.064 510.156 753.945 451.108 726.034C360.532 683.212 291.495 593.286 202.898 545.037C164.805 524.286 123.368 511.409 88.0954 484.684C68.2234 469.467 51.1459 450.876 37.6328 429.748C10.9656 388.36 -3.45521 335.591 0.708984 283.937C4.87318 232.282 28.207 182.506 64.8539 153.346C104.086 122.132 153.635 116.302 198.272 97.5639C244.345 78.1857 285.351 44.8982 330.983 24.1477C367.93 7.3837 408.14 -0.844026 448.662 0.0683864C489.183 0.980799 528.987 11.0102 565.152 29.4204C614.845 54.7008 665.195 113.681 720.54 118.16C759.966 121.255 838.922 81.5496 869.712 119.13Z" fill="#6C63FF" fill-opacity="0.68"/>
<ellipse cx="306.5" cy="536" rx="61.5" ry="15" fill="#CFE9EE" fill-opacity="0.25"/>
<path d="M334 97V445.5L615.5 420.5L601.5 116.5L471 105L334 97Z" fill="#5A52CA" fill-opacity="0.7" stroke="#C4C4C4"/>
<ellipse cx="561" cy="225.5" rx="13" ry="12.5" fill="#5AD1D9"/>
<path d="M553.216 229H556.512C556.752 229 556.952 228.808 556.952 228.56C556.952 228.32 556.752 228.12 556.512 228.12H553.704V226.616H556.112C556.352 226.616 556.552 226.424 556.552 226.184C556.552 225.936 556.352 225.736 556.112 225.736H553.704V224.28H556.472C556.712 224.28 556.912 224.088 556.912 223.84C556.912 223.6 556.712 223.4 556.472 223.4H553.216C552.936 223.4 552.72 223.616 552.72 223.896V228.504C552.72 228.784 552.936 229 553.216 229ZM560.679 229.096C561.583 229.096 562.183 228.808 562.711 228.344C562.799 228.264 562.871 228.144 562.871 227.992C562.871 227.744 562.655 227.536 562.407 227.536C562.287 227.536 562.183 227.584 562.111 227.648C561.703 227.992 561.303 228.184 560.711 228.184C559.639 228.184 558.863 227.296 558.863 226.2V226.184C558.863 225.088 559.647 224.208 560.711 224.208C561.247 224.208 561.663 224.4 562.047 224.712C562.111 224.76 562.207 224.808 562.343 224.808C562.615 224.808 562.831 224.6 562.831 224.328C562.831 224.152 562.743 224.016 562.639 223.936C562.151 223.56 561.583 223.304 560.719 223.304C559.023 223.304 557.831 224.608 557.831 226.2V226.216C557.831 227.824 559.047 229.096 560.679 229.096ZM566.501 229.096C568.221 229.096 569.437 227.776 569.437 226.2V226.184C569.437 224.608 568.237 223.304 566.517 223.304C564.797 223.304 563.581 224.624 563.581 226.2V226.216C563.581 227.792 564.781 229.096 566.501 229.096ZM566.517 228.184C565.405 228.184 564.613 227.288 564.613 226.2V226.184C564.613 225.096 565.389 224.208 566.501 224.208C567.613 224.208 568.405 225.112 568.405 226.2V226.216C568.405 227.304 567.629 228.184 566.517 228.184Z" fill="white"/>
<path d="M737.498 337.012C744.499 290.325 735.998 274.431 708.998 269.961L680.499 272.941C665.999 276.914 666.999 284.365 657.499 324.595C657.499 324.595 668.331 332.689 669.855 332.804C669.279 336.943 669.59 380.06 663.998 405.057H734.998C735.249 374.23 718.498 339.992 718.498 337.012C718.498 334.032 737.498 337.012 737.498 337.012Z" fill="#9F9ADD"/>
<path d="M718 335.012H738C737.867 364.002 714.509 367.454 662 370.5V358.5C701.193 352.768 720.058 348.341 718 335.012Z" fill="#B77E61"/>
<path d="M650 343L660 323.589C678.434 335.256 672.991 345.786 656.5 358.5L650 343Z" fill="#B77E61"/>
<path d="M718 335.012H738C737.867 364.002 714.509 367.454 662 370.5V358.5C701.193 352.768 720.058 348.341 718 335.012Z" stroke="#F6B0B0"/>
<path d="M650 343L660 323.589C678.434 335.256 672.991 345.786 656.5 358.5L650 343Z" stroke="#F6B0B0"/>
<path d="M696.5 223.77C682.664 227.444 678.312 231.133 679.612 243.693C675.261 229.074 676.881 221.926 691.618 211.221C708.837 203.186 722.826 211.045 729.501 225.26C737.46 242.212 728.465 264.442 704.125 265.988C705.566 259.073 705.56 255.85 711 250.591C702.234 240.817 701.538 235.5 696.5 223.77Z" fill="#071931"/>
<path d="M684.375 226.235C697.582 222.112 705.4 221.283 708.309 240.16C708.309 240.16 711.558 238.91 712.762 241.32C713.666 243.129 714.088 250.849 711.093 248.244C711.093 248.244 711.093 256.431 709.163 256.431C707.233 256.431 707.233 264.617 707.233 264.617L708.309 268.767L701.675 279.48L690.501 279.481L690.501 271.451L690.501 264.632C687.908 264.313 684.799 263.212 683.001 260.027C679.508 253.843 679.64 251.829 679.518 247.114C679.42 243.362 678.817 232.574 680.501 231.22C681.373 227.323 683.379 228.178 684.001 227.247C684.215 226.926 684.375 226.235 684.375 226.235Z" fill="#C48671"/>
<path d="M695.5 281.384C701.727 280.02 704.128 276.746 708 269.961C706.518 277.244 705.166 281.148 700.5 287.345L695.5 281.384Z" fill="#C4C4C4"/>
<path d="M686.5 270.954C687 270.954 688.5 269.961 688.5 269.961C688.035 274.264 688.213 276.424 690 279.398L686.5 282.378C686.5 282.378 686 270.954 686.5 270.954Z" fill="#C4C4C4"/>
<path d="M695.5 281.384C701.727 280.02 704.128 276.746 708 269.961C706.518 277.244 705.166 281.148 700.5 287.345L695.5 281.384Z" stroke="#F6B0B0"/>
<path d="M686.5 270.954C687 270.954 688.5 269.961 688.5 269.961C688.035 274.264 688.213 276.424 690 279.398L686.5 282.378C686.5 282.378 686 270.954 686.5 270.954Z" stroke="#F6B0B0"/>
<path d="M735.5 405.057H664L661 480.551V568L678.5 573L691 476.578C691 476.578 692.5 445.287 696.5 441.314C700.5 437.341 707 476.578 707 476.578L719 576H735.5V476.578V405.057Z" fill="#CCC1C1"/>
<path d="M735.5 475.585V498C735.5 498 726 475.585 724.621 473.57C716.5 425.5 686.615 409.014 662.5 407.043H735.5V475.585Z" fill="#C1BABA" fill-opacity="0.79"/>
<path d="M329 492.889C315.115 480.371 306.197 478.014 284 489.135L291.912 537H319.093L329 492.889Z" fill="#5252C6"/>
<ellipse cx="306.35" cy="491.128" rx="22.888" ry="6" transform="rotate(5.40233 306.35 491.128)" fill="#C4C4C4"/>
<path d="M265.975 408.086C251.783 456.037 262.112 474.748 305.145 497H317.197C329.261 480.094 333.998 474.593 326.044 462.81C345.554 418.13 324.228 365.888 314.687 408.086C305.145 450.283 317.197 355.843 285.25 350C265.975 358.857 269.577 374.583 265.975 408.086Z" fill="#75C693"/>
<path d="M288.628 378.569C290.065 381.684 307.498 494.529 306.9 495.462L308.999 497.564L289.266 378.452C289.266 378.452 287.192 375.455 288.628 378.569Z" fill="#AE8070"/>
<path d="M674.275 571.52L664.887 568.801C661.862 579.695 657.425 582.811 641.692 583.753L670.329 586.564C671.755 582.454 672.663 578.836 674.275 571.52Z" fill="#FFEC9F" fill-opacity="0.57"/>
<path d="M732.996 576L723.502 576C723.309 589.433 720.297 591.457 706.119 595.798L732.996 593.218C733.329 588.092 733.251 584.935 732.996 576Z" fill="#FFEC9F" fill-opacity="0.57"/>
<path d="M670.024 591C673.212 588.29 673.869 586.513 673.524 583C664.542 585.85 659.505 587.189 650.524 583H636.024C635.489 588.404 643.81 590.011 670.024 591Z" fill="#9F9ADD"/>
<path d="M732.511 594.981C735.114 591.705 735.415 589.835 734.398 586.455C726.137 590.988 721.453 593.276 711.832 590.903L697.606 593.707C698.126 599.112 706.6 599.08 732.511 594.981Z" fill="#9F9ADD"/>
<path d="M665.636 370.564L663.49 358.719C646.204 351.836 635.87 347.476 641.499 358.424C629.964 373.769 633.397 377.375 665.636 370.564Z" fill="#B77E61"/>
<path d="M656.068 350.978C647.408 336.495 640.81 327.301 629.126 310.945L622.718 313.671C629.099 332.318 632.765 342.227 639.682 358.495C640.374 358.807 641.036 359.093 641.67 359.355C652.164 363.68 655.006 361.127 656.068 350.978Z" fill="#B77E61"/>
<path d="M718 335.012H738C737.867 364.002 714.509 367.454 662 370.5V358.5C701.193 352.768 720.058 348.341 718 335.012Z" fill="#B77E61"/>
<path d="M650 343L660 323.589C678.434 335.256 672.991 345.786 656.5 358.5L650 343Z" fill="#B77E61"/>
<path d="M718 335.012H738C737.867 364.002 714.509 367.454 662 370.5V358.5C701.193 352.768 720.058 348.341 718 335.012Z" stroke="#F6B0B0"/>
<path d="M650 343L660 323.589C678.434 335.256 672.991 345.786 656.5 358.5L650 343Z" stroke="#F6B0B0"/>
<path d="M656.068 350.978C647.408 336.495 640.81 327.301 629.126 310.945L622.718 313.671C629.099 332.318 632.765 342.227 639.682 358.495C640.374 358.807 641.036 359.093 641.67 359.355C652.164 363.68 655.006 361.127 656.068 350.978Z" fill="#B77E61"/>
<path d="M616.165 294.963C610.77 299.986 609.423 302.595 612.229 306.597L615.261 310.016C615.457 310.202 615.652 310.385 615.846 310.564C632.7 325.091 635.091 310.345 620.771 293.729C606.451 277.113 616.165 294.963 616.165 294.963Z" fill="#C48671"/>
<ellipse cx="322.5" cy="738.5" rx="45.5" ry="48.5" fill="#F0EFFF"/>
<ellipse cx="1047" cy="250.5" rx="34" ry="36.5" fill="#F0EFFF"/>
<ellipse cx="683.5" cy="770.5" rx="15.5" ry="16.5" fill="#F0EFFF"/>
<ellipse cx="156.5" cy="60.5" rx="15.5" ry="16.5" fill="#F0EFFF"/>
<ellipse cx="121" cy="23.5" rx="7" ry="7.5" fill="#F0EFFF"/>
<rect x="501" y="257.229" width="71" height="21" rx="5" transform="rotate(-0.185135 501 257.229)" fill="white"/>
<path d="M536.006 215.188L477.006 215.006C475.899 215.003 475 215.899 475 217.006V217.995C475 219.102 475.898 219.998 477.005 219.995L536.005 219.859C537.107 219.856 538 218.962 538 217.859V217.188C538 216.086 537.108 215.191 536.006 215.188Z" fill="#C4C4C4" stroke="white" stroke-width="3"/>
<path d="M536.006 235.188L477.006 235.006C475.899 235.003 475 235.899 475 237.006V237.995C475 239.102 475.898 239.998 477.005 239.995L536.005 239.859C537.107 239.856 538 238.962 538 237.859V237.188C538 236.086 537.108 235.191 536.006 235.188Z" fill="#C4C4C4" stroke="white" stroke-width="3"/>
<path d="M732.176 201.35L715.696 197.141C715.696 197.141 717.935 184.296 716.398 178.227C714.861 172.157 705.099 159.707 708.925 146.904C721.569 115.558 761.913 123.28 760.277 160.017C756.442 175.036 737.496 180.519 734.898 190.692L732.176 201.35Z" fill="#FFEC9F"/>
<circle cx="723.933" cy="199.245" r="4" transform="rotate(14.3255 723.933 199.245)" fill="#F7ECC7"/>
<circle cx="723.933" cy="199.245" r="4" transform="rotate(14.3255 723.933 199.245)" stroke="black"/>
<line x1="746.893" y1="111.086" x2="741.861" y2="126.505" stroke="#F7ECC7"/>
<line x1="780.889" y1="160.517" x2="765.076" y2="156.91" stroke="#F7ECC7"/>
<line x1="704.916" y1="142.524" x2="689.103" y2="138.917" stroke="#F7ECC7"/>
<line x1="715.601" y1="128.01" x2="705.822" y2="115.071" stroke="#F7ECC7"/>
<line x1="762.45" y1="140.602" x2="776.211" y2="132.018" stroke="#F7ECC7"/>
<path d="M990 684V657L971.385 658.44L968 684H990Z" fill="#F8B784"/>
<path d="M939.153 677.704C944.484 668.046 944.077 663.612 939.153 656.963C933.887 663.765 931.498 663.061 928.208 654C881.434 666.346 890.644 674.741 890.895 675.729C891.145 676.717 919.851 681.161 939.153 677.704Z" fill="black" fill-opacity="0.73"/>
<path d="M917.676 579.947C916.155 576.318 917.676 570 917.676 570H947.324C947.324 570 948.845 576.318 947.324 579.947C945.582 584.102 938.482 588 938.482 588H926.518C922.197 586.014 919.418 584.102 917.676 579.947Z" fill="#131212"/>
<path d="M960.457 500.778L925.2 491.272C912.785 520.272 910.591 536.467 911.971 565.277C927.779 574.389 937.136 574.478 954.263 569.111C955.194 533.393 957.263 522.726 960.457 500.778Z" fill="#909090" stroke="#909090"/>
<path d="M987.839 495C974.072 501.407 967.812 497.182 945.439 495C940.641 516.311 942.335 528.587 955.825 536.617L965.48 658H992.921C994.654 575.774 995.13 532.084 987.839 495Z" fill="#C4C4C4" stroke="#A4A4A4"/>
<line x1="976.382" y1="500.108" x2="984.273" y2="656.946" stroke="black" stroke-opacity="0.2"/>
<path d="M928 588H938V658C938 660.761 935.761 663 933 663V663C930.239 663 928 660.761 928 658V588Z" fill="#C4C4C4"/>
<path d="M938.292 676.44C938.334 676.462 938.369 676.482 938.398 676.5C938.369 676.518 938.334 676.538 938.292 676.56C938.03 676.696 937.613 676.842 937.031 676.988C935.876 677.279 934.182 677.545 932.064 677.771C927.834 678.221 921.977 678.5 915.5 678.5C909.023 678.5 903.166 678.221 898.936 677.771C896.818 677.545 895.124 677.279 893.969 676.988C893.387 676.842 892.97 676.696 892.708 676.56C892.666 676.538 892.631 676.518 892.602 676.5C892.631 676.482 892.666 676.462 892.708 676.44C892.97 676.304 893.387 676.158 893.969 676.012C895.124 675.721 896.818 675.455 898.936 675.229C903.166 674.779 909.023 674.5 915.5 674.5C921.977 674.5 927.834 674.779 932.064 675.229C934.182 675.455 935.876 675.721 937.031 676.012C937.613 676.158 938.03 676.304 938.292 676.44Z" fill="#0E0D0D" stroke="black"/>
<path d="M993.035 686.969C993.035 686.969 993.035 686.969 993.034 686.97L993.035 686.969ZM992.765 687.095C992.799 687.105 992.829 687.115 992.857 687.124C992.833 687.141 992.806 687.159 992.777 687.177C992.492 687.357 992.034 687.569 991.398 687.805C990.133 688.273 988.261 688.802 985.913 689.355C981.22 690.462 974.68 691.657 967.406 692.676C960.133 693.695 953.516 694.344 948.701 694.57C946.29 694.683 944.346 694.69 943 694.587C942.324 694.535 941.825 694.458 941.502 694.363C941.468 694.353 941.438 694.343 941.41 694.334C941.434 694.317 941.461 694.299 941.491 694.281C941.775 694.1 942.233 693.889 942.87 693.653C944.135 693.185 946.006 692.656 948.355 692.102C953.047 690.996 959.587 689.801 966.861 688.782C974.134 687.763 980.751 687.114 985.567 686.888C987.977 686.775 989.922 686.768 991.267 686.871C991.944 686.923 992.442 687 992.765 687.095ZM941.196 694.233C941.197 694.233 941.197 694.234 941.198 694.234L941.196 694.233ZM941.232 694.489C941.232 694.489 941.233 694.489 941.233 694.488L941.232 694.489ZM993.07 687.224C993.071 687.224 993.071 687.225 993.071 687.225L993.07 687.224Z" fill="#0E0D0D" stroke="black"/>
<path d="M993 686.632L989.965 669.439C981.517 674.385 976.359 672.988 966.698 666V672.877C937.995 679.876 935.485 685.765 939.491 694C963.315 693.949 974.811 691.427 993 686.632Z" fill="#8A4717"/>
<path d="M943.622 371.6L935.706 360.852C921.535 367.269 917.125 376.087 902.598 388.5L904.696 406.342L911.956 406.708V414.589H921.312L933.547 429.635C927.555 430.579 923.762 432.031 916.994 434.651V496.985C916.994 496.985 942.903 506 955.497 506C968.092 506 994.001 496.985 994.001 496.985L990.403 399.543C987.012 368.699 981.921 356.504 956.577 360.852L943.622 371.6Z" fill="#F47E7E"/>
<path d="M949.094 325.546C946.915 323.4 915.838 287.888 905.505 320.538C893.665 282.29 926.279 276.849 951.273 288.346C970.551 297.214 962.792 330.192 951.273 342C951.273 342 951.273 327.692 949.094 325.546Z" fill="#926E56"/>
<path d="M945.285 321.612C935.048 298.427 924.445 301.8 907.428 310.966C907.428 310.966 907.297 311.204 907.105 311.676C906.545 313.046 907.041 315.679 907.106 320.902C907.146 324.187 908.206 331.765 909.571 336.515C911.288 342.486 911.971 343.867 918.857 350.709C925.744 357.551 934.571 354.967 934.571 354.967V364.903L942.429 370.825L948.857 372L956 360.822L951.714 351.419V329.418C953.857 326.376 952.85 320.1 951 318.063C948.534 315.35 945.285 321.612 945.285 321.612Z" fill="#EDAD8A"/>
<path d="M917 397.533L903.27 389C896.848 400.733 894.762 412.718 905.915 433L917 431.783C911.56 419.228 909.463 412.045 917 397.533Z" fill="#EDAD8A"/>
<path d="M897.503 411.494L882.124 402.922L909.696 398.793L897.503 411.494Z" fill="#EDAD8A"/>
<path d="M794 400.5L817.5 394C814.664 430.602 815.768 453.288 821 496.5C804.5 495.5 800 500.5 784 496.5L798.5 493L807.5 487.5C796.206 449.913 792.629 430.516 794 400.5Z" fill="#C4C4C4"/>
<path d="M837 384.271L860.5 378C857.664 413.313 858.768 435.2 864 476.89C847.951 484.744 840.776 490.234 828 482.5L851.5 476C840.206 439.736 835.629 413.23 837 384.271Z" fill="#C4C4C4"/>
<path d="M782.411 286.133C789.717 299.664 795.348 308.309 805.319 323.686L811.203 321.542C806.104 304.359 803.146 295.215 797.477 280.156C796.864 279.84 796.276 279.548 795.713 279.28C786.389 274.842 783.731 277.008 782.411 286.133Z" fill="#F2C1AD"/>
<path d="M864.998 290.012C871.999 243.325 863.498 227.431 836.498 222.961L807.999 225.941C793.499 229.914 794.499 237.365 784.999 277.595C784.999 277.595 795.831 285.689 797.355 285.804C796.779 289.943 797.09 333.06 791.498 358.057H862.498C862.749 327.23 845.998 292.992 845.998 290.012C845.998 287.032 864.998 290.012 864.998 290.012Z" fill="#E28DA5"/>
<path d="M824.182 178.637C810.214 182.845 805.82 187.071 807.132 201.46C802.74 184.713 804.376 176.524 819.253 164.261C836.636 155.056 846.729 166.625 853.468 182.909C861.503 202.329 856.451 225.229 831.879 227C833.334 219.079 833.328 215.387 838.82 209.362C829.97 198.166 829.268 192.073 824.182 178.637Z" fill="#071931"/>
<path d="M811.875 179.235C825.082 175.112 832.9 174.283 835.809 193.16C835.809 193.16 839.058 191.91 840.262 194.32C841.166 196.129 841.588 203.849 838.593 201.244C838.593 201.244 838.593 209.431 836.663 209.431C834.733 209.431 834.733 217.617 834.733 217.617L835.809 221.767L829.175 232.48L818.001 232.481L818.001 224.451L818.001 217.632C815.408 217.313 812.299 216.212 810.501 213.027C807.008 206.843 807.14 204.829 807.018 200.114C806.92 196.362 806.317 185.574 808.001 184.22C808.873 180.323 810.879 181.178 811.501 180.247C811.715 179.926 811.875 179.235 811.875 179.235Z" fill="#C48671"/>
<path d="M791.5 358.057H863V429.578L847.5 427C832 424.422 818.5 429.578 818.5 429.578L788.5 432L791.5 358.057Z" fill="#EABD70"/>
<path d="M863 426.585L852.174 423.5C852.174 423.5 845.327 422.806 846 421.5C848.706 372.833 814.115 360.014 790 358.043H863V426.585Z" fill="#D6A658"/>
<rect x="821.031" y="187.548" width="15.9981" height="10.6654" rx="5" transform="rotate(1.22147 821.031 187.548)" fill="black"/>
<rect x="803.77" y="187.974" width="15.509" height="10.6115" rx="5" transform="rotate(1.22147 803.77 187.974)" fill="black"/>
<line x1="817.717" y1="191.226" x2="825.112" y2="191.384" stroke="black" stroke-width="2"/>
<path d="M825.012 314.931C839.136 301.019 833.513 309.449 846.508 289.5C861.007 285.5 872 286.5 858.38 302.972L833.552 319C828.261 318.743 826.512 317.77 825.012 314.931Z" fill="#F2C1AD"/>
<path d="M820.315 319H831L821.174 386.529L807.137 483H805L820.315 319Z" fill="#6C6C6C"/>
<path d="M818 319H833L823 363H818V319Z" fill="#3E3E3E"/>
<path d="M921.782 414.223H910.766L908.563 413.454C907.072 418.523 853.485 386.551 853.485 382.708C853.485 378.865 846.142 382.708 846.142 382.708V386.551C847.239 388.517 841.454 386.781 828.517 386.551C815.579 386.322 822.836 408.599 824.845 408.843C826.854 409.087 860.095 408.843 860.095 408.843C860.095 408.843 897.248 434.948 917.375 438L935 433.249V430.262L921.782 414.223Z" fill="#EDAD8A"/>
<path d="M861.201 484.608C863.825 481.307 864.128 479.422 863.103 476.016C854.778 480.585 850.058 482.89 840.361 480.498L826.024 483.324C826.548 488.771 835.088 488.739 861.201 484.608Z" fill="#E28DA5"/>
<path d="M818.201 497.665C820.825 494.364 821.128 492.479 820.103 489.073C811.778 493.641 807.058 495.947 797.361 493.555L783.024 496.381C783.548 501.828 792.088 501.796 818.201 497.665Z" fill="#E28DA5"/>
<path d="M454 123.33L351 121V181L454 179.252V123.33Z" stroke="white" stroke-width="3"/>
<path d="M463.004 215.19L364.004 215.004C362.898 215.002 362 215.898 362 217.004V217.997C362 219.103 362.897 219.999 364.003 219.997L463.003 219.857C464.106 219.856 465 218.961 465 217.857V217.19C465 216.087 464.107 215.192 463.004 215.19Z" fill="#C4C4C4" stroke="white" stroke-width="3"/>
<path d="M463.004 236.19L364.004 236.004C362.898 236.002 362 236.898 362 238.004V238.997C362 240.103 362.897 240.999 364.003 240.997L463.003 240.857C464.106 240.856 465 239.961 465 238.857V238.19C465 237.087 464.107 236.192 463.004 236.19Z" fill="#C4C4C4" stroke="white" stroke-width="3"/>
<path d="M579 206.301L351 203V288L579 285.524V206.301Z" stroke="#5AD1D9" stroke-width="3"/>
<path d="M579 127.175L472 125V181L579 179.369V127.175Z" stroke="white" stroke-width="3"/>
<path d="M454 303.33L351 301V361L454 359.252V303.33Z" stroke="white" stroke-width="3"/>
<path d="M579 307.175L472 305V361L579 359.369V307.175Z" stroke="white" stroke-width="3"/>
</svg>
