<svg width="158" height="26" viewBox="0 0 158 26" fill="none" xmlns="http://www.w3.org/2000/svg">
<path d="M42.54 20.22C45.598 20.22 47.798 18.504 47.798 15.864V15.82C47.798 13.466 46.214 12.212 42.782 11.464C39.394 10.738 38.602 9.924 38.602 8.472V8.428C38.602 7.042 39.878 5.942 41.88 5.942C43.31 5.942 44.564 6.338 45.862 7.284C46.016 7.394 46.17 7.438 46.368 7.438C46.83 7.438 47.204 7.064 47.204 6.602C47.204 6.272 47.006 6.03 46.83 5.898C45.422 4.886 43.948 4.38 41.924 4.38C38.998 4.38 36.864 6.162 36.864 8.582V8.626C36.864 11.156 38.492 12.3 42.034 13.07C45.268 13.752 46.038 14.566 46.038 15.996V16.04C46.038 17.558 44.674 18.658 42.606 18.658C40.648 18.658 39.196 18.064 37.744 16.832C37.634 16.722 37.436 16.634 37.216 16.634C36.754 16.634 36.38 17.008 36.38 17.492C36.38 17.778 36.512 18.02 36.71 18.152C38.426 19.516 40.296 20.22 42.54 20.22ZM52.0583 13.686C52.2783 11.464 53.7743 9.814 55.7543 9.814C58.0203 9.814 59.2083 11.618 59.3843 13.686H52.0583ZM60.3083 18.548C60.4843 18.394 60.5723 18.196 60.5723 17.998C60.5723 17.602 60.2423 17.272 59.8243 17.272C59.6263 17.272 59.4723 17.36 59.3403 17.47C58.5043 18.24 57.4703 18.79 56.0623 18.79C54.0383 18.79 52.3003 17.404 52.0583 14.94H60.2863C60.7043 14.94 61.0783 14.61 61.0783 14.148C61.0783 11.134 59.1643 8.384 55.7983 8.384C52.6523 8.384 50.3423 11.024 50.3423 14.302V14.346C50.3423 17.866 52.8943 20.264 56.0183 20.264C57.9543 20.264 59.2303 19.582 60.3083 18.548ZM64.0658 19.252C64.0658 19.736 64.4398 20.11 64.9238 20.11C65.4078 20.11 65.7598 19.736 65.7598 19.252V13.488C65.7598 11.354 67.2118 9.924 69.1698 9.924C71.1718 9.924 72.3158 11.244 72.3158 13.356V19.252C72.3158 19.736 72.6898 20.11 73.1738 20.11C73.6358 20.11 74.0098 19.736 74.0098 19.252V12.938C74.0098 10.232 72.4038 8.384 69.6538 8.384C67.6958 8.384 66.5078 9.374 65.7598 10.606V9.374C65.7598 8.89 65.3858 8.516 64.9018 8.516C64.4398 8.516 64.0658 8.912 64.0658 9.374V19.252ZM88.4465 4.688C88.4465 4.204 88.0725 3.83 87.5885 3.83C87.1045 3.83 86.7525 4.204 86.7525 4.688V10.804C85.8725 9.528 84.5085 8.384 82.3965 8.384C79.6685 8.384 76.9625 10.584 76.9625 14.302V14.346C76.9625 18.086 79.6685 20.242 82.3965 20.242C84.4865 20.242 85.8285 19.076 86.7525 17.712V19.252C86.7525 19.736 87.1265 20.11 87.6105 20.11C88.0725 20.11 88.4465 19.736 88.4465 19.252V4.688ZM82.7045 9.902C84.8165 9.902 86.8185 11.662 86.8185 14.28V14.324C86.8185 16.942 84.8165 18.724 82.7045 18.724C80.5705 18.724 78.7005 17.008 78.7005 14.324V14.28C78.7005 11.53 80.5045 9.902 82.7045 9.902ZM99.9715 20H109.652C110.092 20 110.444 19.648 110.444 19.208C110.444 18.768 110.092 18.416 109.652 18.416H100.852V13.026H108.552C108.992 13.026 109.344 12.674 109.344 12.234C109.344 11.816 108.992 11.442 108.552 11.442H100.852V6.184H109.542C109.982 6.184 110.334 5.832 110.334 5.392C110.334 4.952 109.982 4.6 109.542 4.6H99.9715C99.5095 4.6 99.1135 4.996 99.1135 5.48V19.12C99.1135 19.604 99.5095 20 99.9715 20ZM113.566 19.252C113.566 19.736 113.94 20.11 114.424 20.11C114.908 20.11 115.26 19.736 115.26 19.252V13.51C115.26 11.42 116.624 9.924 118.428 9.924C120.232 9.924 121.354 11.178 121.354 13.312V19.252C121.354 19.736 121.728 20.11 122.19 20.11C122.674 20.11 123.048 19.736 123.048 19.252V13.444C123.048 11.2 124.456 9.924 126.172 9.924C128.02 9.924 129.12 11.156 129.12 13.356V19.252C129.12 19.736 129.494 20.11 129.978 20.11C130.44 20.11 130.814 19.736 130.814 19.252V12.96C130.814 10.144 129.208 8.384 126.59 8.384C124.61 8.384 123.4 9.396 122.586 10.65C121.97 9.374 120.782 8.384 118.934 8.384C117.02 8.384 116.008 9.418 115.26 10.54V9.374C115.26 8.89 114.886 8.516 114.402 8.516C113.94 8.516 113.566 8.912 113.566 9.374V19.252ZM137.88 20.242C139.882 20.242 141.202 19.318 141.994 18.284V19.318C141.994 19.758 142.324 20.11 142.808 20.11C143.27 20.11 143.622 19.758 143.622 19.274V13.048C143.622 11.596 143.226 10.496 142.456 9.726C141.62 8.89 140.388 8.472 138.782 8.472C137.33 8.472 136.186 8.758 135.064 9.242C134.844 9.33 134.602 9.594 134.602 9.946C134.602 10.342 134.954 10.672 135.35 10.672C135.438 10.672 135.548 10.65 135.658 10.606C136.494 10.232 137.462 9.968 138.606 9.968C140.74 9.968 141.994 11.024 141.994 13.07V13.466C140.982 13.18 139.948 12.982 138.496 12.982C135.614 12.982 133.634 14.258 133.634 16.656V16.7C133.634 19.032 135.768 20.242 137.88 20.242ZM138.21 18.9C136.67 18.9 135.35 18.064 135.35 16.634V16.59C135.35 15.16 136.538 14.236 138.672 14.236C140.058 14.236 141.18 14.478 142.016 14.72V15.82C142.016 17.624 140.3 18.9 138.21 18.9ZM147.232 5.348C147.232 5.876 147.672 6.25 148.222 6.25C148.794 6.25 149.234 5.876 149.234 5.348V5.062C149.234 4.512 148.794 4.16 148.222 4.16C147.672 4.16 147.232 4.512 147.232 5.062V5.348ZM147.386 19.252C147.386 19.736 147.76 20.11 148.244 20.11C148.728 20.11 149.08 19.736 149.08 19.252V9.374C149.08 8.89 148.706 8.516 148.222 8.516C147.76 8.516 147.386 8.912 147.386 9.374V19.252ZM153.165 19.252C153.165 19.736 153.539 20.11 154.023 20.11C154.507 20.11 154.859 19.736 154.859 19.252V4.688C154.859 4.226 154.485 3.83 154.001 3.83C153.539 3.83 153.165 4.226 153.165 4.688V19.252Z" fill="white"/>
<path d="M21.308 24.308H4.692C3.7133 24.3059 2.7753 23.9161 2.08334 23.2239C1.39139 22.5318 1.00185 21.5937 1 20.615V7.692C1.00211 6.71347 1.39177 5.77562 2.0837 5.0837C2.77562 4.39177 3.71347 4.00211 4.692 4H21.308C22.2865 4.00211 23.2244 4.39177 23.9163 5.0837C24.6082 5.77562 24.9979 6.71347 25 7.692V20.615C24.9982 21.5937 24.6086 22.5318 23.9167 23.2239C23.2247 23.9161 22.2867 24.3059 21.308 24.308Z" stroke="white" stroke-width="2" stroke-miterlimit="10" stroke-linecap="round" stroke-linejoin="round"/>
<path d="M1 8.396L13 16.396L25 8.396" stroke="white" stroke-width="2" stroke-miterlimit="10" stroke-linecap="round" stroke-linejoin="round"/>
</svg>
