<svg width="26" height="23" viewBox="0 0 26 23" fill="none" xmlns="http://www.w3.org/2000/svg">
<path d="M21.308 21.308H4.692C3.7133 21.3059 2.7753 20.9161 2.08334 20.2239C1.39139 19.5318 1.00185 18.5937 1 17.615V4.692C1.00211 3.71347 1.39177 2.77562 2.0837 2.0837C2.77562 1.39177 3.71347 1.00211 4.692 1H21.308C22.2865 1.00211 23.2244 1.39177 23.9163 2.0837C24.6082 2.77562 24.9979 3.71347 25 4.692V17.615C24.9982 18.5937 24.6086 19.5318 23.9167 20.2239C23.2247 20.9161 22.2867 21.3059 21.308 21.308Z" stroke="white" stroke-width="2" stroke-miterlimit="10" stroke-linecap="round" stroke-linejoin="round"/>
<path d="M1 5.396L13 13.396L25 5.396" stroke="white" stroke-width="2" stroke-miterlimit="10" stroke-linecap="round" stroke-linejoin="round"/>
</svg>
