<svg width="24" height="24" viewBox="0 0 24 24" fill="none" xmlns="http://www.w3.org/2000/svg">
<path d="M12 0C18.6274 0 24 5.37258 24 12C24 18.6274 18.6274 24 12 24C11.9963 24 11.9928 24 11.9892 24C11.9862 24 11.9831 24 11.9801 24C11.9766 24 11.9733 24 11.9698 24C11.9666 24 11.9635 23.9999 11.9603 23.9999C11.9572 23.9999 11.9536 23.9999 11.9505 23.9999C11.9473 23.9999 11.944 23.9999 11.9408 23.9999C11.9376 23.9998 11.9343 23.9998 11.931 23.9998C11.9278 23.9998 11.9247 23.9998 11.9214 23.9997C11.9184 23.9997 11.9149 23.9997 11.9119 23.9997C11.9086 23.9997 11.9054 23.9996 11.9022 23.9996C11.8991 23.9996 11.8956 23.9996 11.8925 23.9995C11.8891 23.9995 11.8858 23.9995 11.8824 23.9994C11.8795 23.9994 11.8762 23.9994 11.8732 23.9993C11.8698 23.9993 11.8663 23.9993 11.863 23.9992C11.8599 23.9992 11.8569 23.9992 11.8538 23.9991C11.8504 23.9991 11.847 23.999 11.8437 23.999C11.8406 23.999 11.8376 23.9989 11.8346 23.9989C11.8312 23.9988 11.8279 23.9988 11.8245 23.9987C11.8217 23.9987 11.8182 23.9987 11.8154 23.9986C11.8116 23.9986 11.8089 23.9985 11.8051 23.9984C11.8023 23.9984 11.7989 23.9984 11.7961 23.9983C11.7923 23.9982 11.7896 23.9982 11.7858 23.9981C11.7829 23.9981 11.7796 23.998 11.7767 23.998C11.7732 23.9979 11.7697 23.9978 11.7662 23.9978C11.7632 23.9977 11.7604 23.9977 11.7574 23.9976C11.7539 23.9975 11.7504 23.9975 11.7469 23.9974C11.7441 23.9973 11.741 23.9973 11.7381 23.9972C11.7347 23.9971 11.7311 23.997 11.7276 23.997C11.7248 23.9969 11.7217 23.9968 11.7189 23.9968C11.7154 23.9967 11.7117 23.9966 11.7083 23.9965C11.7055 23.9965 11.7024 23.9964 11.6996 23.9963C11.696 23.9962 11.6926 23.9961 11.689 23.996C11.6863 23.996 11.6831 23.9959 11.6804 23.9958C11.6768 23.9957 11.6735 23.9956 11.6699 23.9955C11.6669 23.9955 11.6642 23.9954 11.6612 23.9953C11.6577 23.9952 11.654 23.9951 11.6505 23.995C11.6442 23.9948 11.6377 23.9946 11.6314 23.9944C11.6286 23.9944 11.6256 23.9943 11.6228 23.9942L11.6227 23.9942C11.6193 23.9941 11.6156 23.994 11.6121 23.9938C11.6059 23.9937 11.5993 23.9934 11.5931 23.9932C11.5868 23.993 11.58 23.9928 11.5737 23.9926C11.5709 23.9925 11.5678 23.9924 11.565 23.9923L11.5649 23.9923C11.5613 23.9921 11.558 23.992 11.5544 23.9919C11.5512 23.9918 11.548 23.9916 11.5448 23.9915C11.5416 23.9914 11.5382 23.9913 11.535 23.9912C11.5318 23.991 11.5287 23.9909 11.5255 23.9908C11.5224 23.9907 11.519 23.9905 11.516 23.9904C11.5126 23.9903 11.5095 23.9902 11.5062 23.99C11.503 23.9899 11.5 23.9898 11.4968 23.9896C11.4936 23.9895 11.4902 23.9894 11.487 23.9892C11.4838 23.9891 11.4808 23.989 11.4776 23.9888C11.4742 23.9887 11.4709 23.9885 11.4675 23.9884C11.4642 23.9883 11.4616 23.9881 11.4583 23.988C11.4548 23.9878 11.4517 23.9877 11.4483 23.9875C11.4451 23.9874 11.4425 23.9873 11.4393 23.9871C11.4361 23.987 11.4321 23.9868 11.429 23.9867C11.4256 23.9865 11.4232 23.9864 11.4199 23.9862C11.4167 23.9861 11.4128 23.9859 11.4096 23.9857C11.4066 23.9856 11.4041 23.9855 11.401 23.9853C11.398 23.9852 11.3937 23.985 11.3906 23.9848C11.3875 23.9846 11.385 23.9845 11.3818 23.9844C11.3786 23.9842 11.3745 23.984 11.3713 23.9838C11.3683 23.9837 11.3658 23.9835 11.3628 23.9834C11.3592 23.9832 11.3558 23.983 11.3522 23.9828C11.3493 23.9827 11.3466 23.9825 11.3437 23.9824C11.3402 23.9822 11.3367 23.982 11.3332 23.9818C11.3303 23.9816 11.3275 23.9815 11.3246 23.9813C11.321 23.9811 11.3177 23.9809 11.3141 23.9807C11.3112 23.9806 11.3084 23.9804 11.3054 23.9802C11.3019 23.98 11.2985 23.9798 11.2949 23.9796C11.2923 23.9795 11.2892 23.9793 11.2865 23.9791C11.2829 23.9789 11.2794 23.9787 11.2758 23.9785C11.2731 23.9783 11.2701 23.9782 11.2674 23.978C11.2638 23.9778 11.2604 23.9776 11.2569 23.9774C11.2539 23.9772 11.2513 23.977 11.2484 23.9768C11.2448 23.9766 11.2413 23.9764 11.2378 23.9762C11.2346 23.976 11.2316 23.9758 11.2285 23.9756C11.2253 23.9754 11.2218 23.9752 11.2186 23.975C11.2155 23.9748 11.2128 23.9746 11.2097 23.9744C11.2063 23.9742 11.2031 23.974 11.1997 23.9737C11.1968 23.9735 11.1935 23.9733 11.1906 23.9731C11.1873 23.9729 11.1841 23.9727 11.1807 23.9725C11.1777 23.9723 11.1744 23.972 11.1713 23.9718C11.1683 23.9716 11.1646 23.9714 11.1616 23.9712C11.1583 23.9709 11.155 23.9707 11.1517 23.9705C11.1487 23.9703 11.1455 23.97 11.1425 23.9698C11.1392 23.9696 11.136 23.9694 11.1327 23.9691C11.1296 23.9689 11.1266 23.9687 11.1235 23.9685C11.12 23.9682 11.1168 23.968 11.1134 23.9677C11.1102 23.9675 11.1075 23.9673 11.1044 23.9671C11.1009 23.9668 11.0978 23.9666 11.0944 23.9663C11.0913 23.9661 11.0885 23.9659 11.0855 23.9657C11.0823 23.9654 11.0782 23.9651 11.075 23.9649C11.0718 23.9646 11.0695 23.9645 11.0663 23.9642C11.0632 23.964 11.0593 23.9637 11.0561 23.9634C11.0529 23.9632 11.0505 23.963 11.0474 23.9627C11.0442 23.9625 11.0402 23.9622 11.037 23.9619C11.034 23.9617 11.0315 23.9615 11.0284 23.9612C11.0254 23.961 11.0212 23.9607 11.0181 23.9604C11.0151 23.9602 11.0125 23.96 11.0095 23.9597C11.006 23.9594 11.0026 23.9591 10.9991 23.9589C10.996 23.9586 10.9936 23.9584 10.9906 23.9581C10.987 23.9578 10.9838 23.9576 10.9802 23.9573C10.9773 23.957 10.9745 23.9568 10.9716 23.9566C10.968 23.9562 10.9647 23.956 10.961 23.9556C10.9578 23.9554 10.9557 23.9552 10.9526 23.9549C10.9489 23.9546 10.9457 23.9543 10.942 23.954C10.9393 23.9538 10.9365 23.9535 10.9338 23.9533C10.9299 23.9529 10.9267 23.9527 10.9229 23.9523C10.9199 23.9521 10.9177 23.9519 10.9147 23.9516C10.911 23.9513 10.9078 23.951 10.9041 23.9506C10.9012 23.9504 10.8986 23.9501 10.8957 23.9499C10.892 23.9495 10.889 23.9493 10.8853 23.9489C10.8822 23.9486 10.88 23.9484 10.8768 23.9481C10.8732 23.9478 10.8699 23.9475 10.8664 23.9472C10.8634 23.9469 10.8606 23.9466 10.8576 23.9463C10.8543 23.946 10.8507 23.9457 10.8474 23.9454C10.8442 23.9451 10.8414 23.9448 10.8382 23.9445C10.835 23.9442 10.8319 23.9439 10.8286 23.9436C10.8253 23.9432 10.8226 23.943 10.8193 23.9427C10.8162 23.9423 10.8129 23.942 10.8097 23.9417C10.8063 23.9414 10.8034 23.9411 10.8 23.9408C10.7967 23.9404 10.794 23.9402 10.7907 23.9398C10.7875 23.9395 10.7844 23.9392 10.7812 23.9389C10.7779 23.9385 10.7751 23.9383 10.7719 23.9379C10.7684 23.9376 10.7654 23.9373 10.762 23.9369C10.7587 23.9366 10.7563 23.9363 10.753 23.936C10.7499 23.9357 10.7462 23.9353 10.743 23.935C10.7399 23.9346 10.7374 23.9344 10.7343 23.934C10.7311 23.9337 10.7274 23.9333 10.7242 23.933C10.7209 23.9326 10.7186 23.9324 10.7153 23.932C10.7122 23.9317 10.7083 23.9313 10.7052 23.931C10.7023 23.9307 10.6993 23.9303 10.6965 23.93C10.6933 23.9297 10.6895 23.9293 10.6864 23.9289C10.6832 23.9286 10.6809 23.9283 10.6777 23.928C10.6745 23.9276 10.6706 23.9272 10.6673 23.9268C10.6649 23.9266 10.6614 23.9262 10.6589 23.9259C10.6557 23.9255 10.6519 23.9251 10.6486 23.9248C10.6457 23.9244 10.643 23.9241 10.6401 23.9238C10.6368 23.9234 10.633 23.923 10.6297 23.9226C10.6269 23.9223 10.6241 23.922 10.6213 23.9217C10.618 23.9213 10.6143 23.9209 10.6111 23.9205C10.6079 23.9201 10.6057 23.9199 10.6026 23.9195C10.5993 23.9191 10.5955 23.9187 10.5922 23.9183C10.5892 23.9179 10.5869 23.9177 10.5839 23.9173C10.5804 23.9169 10.577 23.9165 10.5735 23.9161C10.5704 23.9157 10.5682 23.9155 10.565 23.9151C10.5613 23.9146 10.5583 23.9143 10.5545 23.9138C10.5515 23.9135 10.5487 23.9131 10.5457 23.9128C10.5425 23.9124 10.5391 23.912 10.5359 23.9116C10.5326 23.9112 10.5302 23.9109 10.5269 23.9105C10.5236 23.9101 10.5204 23.9097 10.5171 23.9093C10.5141 23.9089 10.5111 23.9085 10.5081 23.9082C10.5047 23.9078 10.5017 23.9074 10.4983 23.907C10.4952 23.9066 10.4923 23.9062 10.4891 23.9058C10.4859 23.9054 10.4828 23.905 10.4795 23.9046C10.4761 23.9042 10.4732 23.9038 10.4698 23.9034C10.4669 23.903 10.4637 23.9026 10.4608 23.9022C10.4577 23.9018 10.4544 23.9014 10.4512 23.901C10.448 23.9006 10.4454 23.9002 10.4422 23.8998C10.4388 23.8994 10.436 23.899 10.4326 23.8986C10.4295 23.8982 10.4267 23.8978 10.4236 23.8974C10.4201 23.8969 10.4173 23.8966 10.4138 23.8961C10.4105 23.8957 10.4081 23.8953 10.4048 23.8949C10.4017 23.8945 10.398 23.894 10.3949 23.8936C10.3918 23.8932 10.3894 23.8929 10.3863 23.8924C10.3832 23.892 10.3792 23.8915 10.3761 23.8911C10.3733 23.8907 10.3703 23.8903 10.3675 23.8899C10.3642 23.8894 10.3605 23.8889 10.3573 23.8885C10.3548 23.8882 10.3513 23.8877 10.3488 23.8873C10.3456 23.8869 10.3418 23.8864 10.3385 23.8859C10.3361 23.8856 10.3325 23.8851 10.33 23.8847C10.3265 23.8842 10.323 23.8838 10.3195 23.8833C10.3168 23.8829 10.3141 23.8825 10.3114 23.8821C10.3082 23.8817 10.3044 23.8811 10.3011 23.8807C10.2985 23.8803 10.2954 23.8799 10.2928 23.8795C10.2896 23.879 10.2858 23.8785 10.2825 23.878C10.2801 23.8777 10.2767 23.8772 10.2742 23.8768C10.2709 23.8763 10.2671 23.8758 10.2638 23.8753C10.2613 23.875 10.258 23.8745 10.2555 23.8741C10.252 23.8736 10.2484 23.8731 10.2449 23.8726C10.2423 23.8722 10.2396 23.8718 10.237 23.8714C10.2335 23.8709 10.2298 23.8704 10.2263 23.8698C10.2235 23.8694 10.2204 23.869 10.2176 23.8685C10.214 23.868 10.2113 23.8676 10.2077 23.8671C10.2049 23.8666 10.2018 23.8662 10.199 23.8657C10.1955 23.8652 10.1927 23.8648 10.1892 23.8643C10.1863 23.8638 10.1827 23.8633 10.1798 23.8628C10.1768 23.8624 10.1733 23.8619 10.1703 23.8614C10.1672 23.8609 10.1642 23.8605 10.1611 23.86C10.1584 23.8596 10.1547 23.859 10.152 23.8586C10.1489 23.8581 10.1454 23.8576 10.1424 23.8571C10.1395 23.8566 10.1362 23.8561 10.1333 23.8557C10.1303 23.8552 10.1266 23.8546 10.1236 23.8542C10.1207 23.8537 10.1177 23.8532 10.1149 23.8528C10.1115 23.8523 10.108 23.8517 10.1047 23.8512C10.1019 23.8507 10.0991 23.8503 10.0963 23.8498C10.0933 23.8494 10.0898 23.8488 10.0868 23.8483C10.0841 23.8479 10.0807 23.8473 10.078 23.8469C10.0745 23.8464 10.0714 23.8458 10.0679 23.8453C10.0651 23.8448 10.062 23.8443 10.0592 23.8439C10.0555 23.8433 10.0528 23.8428 10.0491 23.8422C10.0463 23.8418 10.0437 23.8413 10.0409 23.8409C10.0372 23.8403 10.0342 23.8398 10.0305 23.8392C10.0276 23.8387 10.0252 23.8383 10.0222 23.8378C10.0188 23.8372 10.0155 23.8367 10.012 23.8361C10.0093 23.8356 10.0066 23.8352 10.0039 23.8347C10.0007 23.8342 9.99713 23.8336 9.99393 23.8331C9.99123 23.8326 9.98813 23.8321 9.98544 23.8316C9.98197 23.831 9.97861 23.8305 9.97514 23.8299C9.97232 23.8294 9.9698 23.829 9.96699 23.8285C9.96353 23.8279 9.95992 23.8273 9.95646 23.8267C9.95352 23.8262 9.95128 23.8258 9.94834 23.8253C9.94475 23.8247 9.94154 23.8241 9.93796 23.8235C9.93501 23.823 9.93291 23.8226 9.92997 23.8221C9.92638 23.8215 9.92292 23.8209 9.91934 23.8203C9.91602 23.8197 9.91265 23.8191 9.90934 23.8185C9.9064 23.818 9.90385 23.8176 9.90091 23.817C9.8981 23.8165 9.896 23.8162 9.89319 23.8157C9.88948 23.815 9.8862 23.8144 9.88249 23.8138C9.87905 23.8132 9.87545 23.8125 9.87201 23.8119C9.86933 23.8114 9.86662 23.8109 9.86394 23.8105C9.86037 23.8098 9.85709 23.8092 9.85353 23.8086C9.85085 23.8081 9.84825 23.8076 9.84557 23.8071C9.84188 23.8065 9.83821 23.8058 9.83451 23.8051C9.83209 23.8047 9.82941 23.8042 9.82699 23.8038C9.82317 23.8031 9.82003 23.8025 9.81622 23.8018C9.8138 23.8013 9.81114 23.8008 9.80873 23.8004C9.80503 23.7997 9.80199 23.7992 9.7983 23.7985C9.79563 23.798 9.7931 23.7975 9.79042 23.797C9.78673 23.7963 9.7833 23.7957 9.77962 23.795C9.77694 23.7945 9.77479 23.7941 9.77212 23.7936C9.7683 23.7929 9.76494 23.7922 9.76112 23.7915C9.75845 23.791 9.75627 23.7906 9.7536 23.7901C9.74992 23.7894 9.74666 23.7888 9.74297 23.7881C9.74018 23.7875 9.73808 23.7871 9.73528 23.7866C9.73173 23.7859 9.72805 23.7852 9.7245 23.7845C9.72171 23.784 9.71973 23.7836 9.71694 23.7831C9.71351 23.7824 9.70967 23.7817 9.70625 23.781C9.70345 23.7805 9.70161 23.7801 9.69882 23.7796C9.69553 23.7789 9.69123 23.7781 9.68793 23.7775C9.68526 23.7769 9.68306 23.7765 9.6804 23.776C9.67698 23.7753 9.67315 23.7746 9.66973 23.7739C9.66694 23.7734 9.66483 23.7729 9.66204 23.7724C9.65851 23.7717 9.65487 23.771 9.65133 23.7703C9.64867 23.7697 9.64655 23.7693 9.64389 23.7688C9.64035 23.7681 9.63664 23.7673 9.63309 23.7666C9.63081 23.7662 9.628 23.7656 9.62572 23.7652C9.62205 23.7644 9.61868 23.7637 9.61501 23.763C9.61425 23.7628 9.61275 23.7625 9.61199 23.7624C9.60694 23.7614 9.60175 23.7603 9.59671 23.7593C9.59594 23.7591 9.59463 23.7589 9.59386 23.7587C9.58869 23.7577 9.5833 23.7566 9.57813 23.7555C9.57737 23.7553 9.57661 23.7552 9.57585 23.755C9.57055 23.7539 9.56544 23.7529 9.56015 23.7518C9.55625 23.751 9.55177 23.7501 9.54785 23.7493C9.54584 23.7488 9.54385 23.7484 9.54183 23.748C9.53791 23.7472 9.53392 23.7464 9.53001 23.7455C9.52799 23.7451 9.5257 23.7446 9.52369 23.7442C9.51978 23.7434 9.51579 23.7426 9.51188 23.7417C9.50987 23.7413 9.50758 23.7408 9.50556 23.7404C9.50165 23.7396 9.49824 23.7388 9.49433 23.738C9.49206 23.7375 9.48965 23.737 9.48738 23.7365C9.48347 23.7357 9.4801 23.735 9.4762 23.7341C9.4738 23.7336 9.47161 23.7332 9.46922 23.7327C9.46544 23.7318 9.46249 23.7312 9.45871 23.7304C9.45632 23.7299 9.45352 23.7293 9.45113 23.7288C9.4471 23.7279 9.44375 23.7272 9.43972 23.7263C9.43733 23.7258 9.43515 23.7253 9.43276 23.7248C9.42912 23.724 9.42551 23.7232 9.42186 23.7224C9.41947 23.7219 9.41712 23.7213 9.41473 23.7208C9.41108 23.72 9.40786 23.7193 9.40421 23.7185C9.40144 23.7179 9.3993 23.7174 9.39653 23.7168C9.39276 23.716 9.38944 23.7152 9.38568 23.7144C9.38329 23.7139 9.38073 23.7133 9.37834 23.7128C9.37445 23.7119 9.37116 23.7112 9.36727 23.7103C9.36514 23.7098 9.36236 23.7092 9.36022 23.7087C9.35659 23.7079 9.35264 23.707 9.349 23.7062C9.34675 23.7057 9.34429 23.7051 9.34203 23.7046C9.33815 23.7037 9.33476 23.703 9.33088 23.7021C9.3305 23.702 9.3298 23.7018 9.32942 23.7018C9.32404 23.7005 9.31865 23.6993 9.31328 23.6981C9.31252 23.6979 9.31183 23.6978 9.31108 23.6976C9.30558 23.6963 9.30019 23.6951 9.29469 23.6938C9.29431 23.6937 9.29379 23.6936 9.29341 23.6935C9.28778 23.6922 9.28233 23.691 9.27671 23.6897C9.27633 23.6896 9.27571 23.6894 9.27533 23.6893C9.26984 23.6881 9.26432 23.6868 9.25883 23.6855C9.25807 23.6853 9.258 23.6853 9.25725 23.6851C9.25188 23.6839 9.24634 23.6826 9.24098 23.6813C9.24022 23.6811 9.23982 23.681 9.23906 23.6809C9.2337 23.6796 9.22833 23.6783 9.22297 23.6771C9.22221 23.6769 9.2218 23.6768 9.22105 23.6766C9.21581 23.6754 9.21026 23.674 9.20502 23.6728C9.20427 23.6726 9.20378 23.6725 9.20303 23.6723C9.19767 23.671 9.19215 23.6697 9.18679 23.6684C9.18642 23.6683 9.18575 23.6682 9.18537 23.6681C9.17989 23.6668 9.17447 23.6655 9.16899 23.6641C9.16861 23.664 9.16753 23.6638 9.16715 23.6637C9.16168 23.6624 9.15621 23.661 9.15074 23.6597C9.15036 23.6596 9.15004 23.6595 9.14966 23.6594C9.14406 23.6581 9.13851 23.6567 9.13292 23.6554C9.12906 23.6544 9.1249 23.6534 9.12105 23.6524C9.1188 23.6519 9.11709 23.6515 9.11485 23.6509C9.11447 23.6508 9.11427 23.6508 9.11389 23.6507C9.1083 23.6493 9.1025 23.6479 9.09691 23.6465C9.09653 23.6464 9.09642 23.6463 9.09605 23.6462C9.09034 23.6448 9.0845 23.6434 9.07879 23.6419L9.07865 23.6419C9.07468 23.6409 9.07084 23.64 9.06687 23.639L9.06683 23.6389C9.06485 23.6385 9.06294 23.638 9.06096 23.6375L9.0607 23.6374C9.05686 23.6364 9.0531 23.6355 9.04925 23.6345L9.04889 23.6344C9.04095 23.6324 9.03314 23.6304 9.02521 23.6284C9.02484 23.6283 9.02551 23.6285 9.02513 23.6284C9.00928 23.6243 8.99367 23.6203 8.97784 23.6162L8.97757 23.6162C8.97163 23.6146 8.96594 23.6131 8.96001 23.6116L8.95977 23.6115C8.95396 23.61 8.94812 23.6085 8.94232 23.607C8.94194 23.6069 8.94228 23.6069 8.94191 23.6068C8.93598 23.6053 8.93036 23.6038 8.92443 23.6022L8.92419 23.6022C8.91839 23.6006 8.91268 23.5991 8.90688 23.5976C8.90651 23.5975 8.90659 23.5975 8.90621 23.5974C8.90041 23.5959 8.89471 23.5943 8.88892 23.5928L8.88861 23.5927C8.88269 23.5911 8.87699 23.5896 8.87108 23.588L8.87095 23.588C8.85925 23.5848 8.84762 23.5817 8.83593 23.5785C8.83556 23.5784 8.83543 23.5783 8.83506 23.5782C8.82337 23.5751 8.81182 23.5719 8.80014 23.5687L8.80011 23.5687C7.80501 23.294 6.86176 22.8944 5.98828 22.3878L7.99508 18.9277C9.20465 19.6292 10.5895 20 12 20C16.4112 20 20 16.4112 20 12C20 7.58879 16.4112 4 12 4V0Z" fill="white"/>
</svg>
