<svg width="26" height="15" viewBox="0 0 26 15" fill="none" xmlns="http://www.w3.org/2000/svg">
<path d="M13.005 9.93201L22.08 0.995005C22.403 0.677308 22.8379 0.499268 23.291 0.499268C23.7441 0.499268 24.179 0.677308 24.502 0.995005C24.6599 1.15148 24.7853 1.33769 24.8708 1.54289C24.9564 1.74808 25.0004 1.96819 25.0004 2.19051C25.0004 2.41282 24.9564 2.63293 24.8708 2.83812C24.7853 3.04332 24.6599 3.22953 24.502 3.38601L14.22 13.511C13.9055 13.8175 13.4862 13.993 13.0472 14.0021C12.6081 14.0112 12.182 13.8532 11.855 13.56L1.50101 3.39301C1.34248 3.23687 1.2166 3.05077 1.13067 2.84553C1.04474 2.64029 1.00049 2.42001 1.00049 2.1975C1.00049 1.975 1.04474 1.75472 1.13067 1.54948C1.2166 1.34424 1.34248 1.15814 1.50101 1.002C1.82402 0.684308 2.25894 0.506268 2.71201 0.506268C3.16507 0.506268 3.59999 0.684308 3.92301 1.002L13.005 9.93201Z" fill="white" stroke="#33B1F3"/>
</svg>
