<svg width="1920" height="729" viewBox="0 0 1920 729" fill="none" xmlns="http://www.w3.org/2000/svg">
<rect width="1926" height="726" fill="#CFE9EE"/>
<path d="M1178.79 622.711H858.755C856.771 622.709 854.869 621.924 853.466 620.527C852.063 619.13 851.274 617.237 851.271 615.262V397.717C851.274 395.742 852.063 393.848 853.466 392.452C854.869 391.055 856.771 390.27 858.755 390.267H1178.79C1180.77 390.27 1182.67 391.055 1184.08 392.452C1185.48 393.848 1186.27 395.742 1186.27 397.717V615.262C1186.27 617.237 1185.48 619.13 1184.08 620.527C1182.67 621.924 1180.77 622.709 1178.79 622.711Z" fill="white"/>
<path d="M1178.79 622.711H858.755C856.771 622.709 854.869 621.924 853.466 620.527C852.063 619.13 851.274 617.237 851.271 615.262V397.717C851.274 395.742 852.063 393.848 853.466 392.452C854.869 391.055 856.771 390.27 858.755 390.267H1178.79C1180.77 390.27 1182.67 391.055 1184.08 392.452C1185.48 393.848 1186.27 395.742 1186.27 397.717V615.262C1186.27 617.237 1185.48 619.13 1184.08 620.527C1182.67 621.924 1180.77 622.709 1178.79 622.711ZM858.755 391.923C857.212 391.924 855.732 392.535 854.641 393.622C853.55 394.708 852.936 396.181 852.934 397.717V615.262C852.936 616.798 853.55 618.271 854.641 619.357C855.732 620.443 857.212 621.054 858.755 621.056H1178.79C1180.33 621.054 1181.81 620.443 1182.9 619.357C1183.99 618.271 1184.61 616.798 1184.61 615.262V397.717C1184.61 396.181 1183.99 394.708 1182.9 393.622C1181.81 392.535 1180.33 391.924 1178.79 391.923H858.755Z" fill="#3F3D56"/>
<path d="M1056.27 620.725H981.271V499.457C981.275 496.581 982.446 493.824 984.528 491.79C986.611 489.756 989.434 488.612 992.379 488.609H1045.16C1048.11 488.612 1050.93 489.756 1053.01 491.79C1055.1 493.824 1056.27 496.581 1056.27 499.457V620.725Z" fill="#E6E6E6"/>
<path d="M1162.27 343.58H1119.27V272.615C1119.27 270.624 1120.08 268.715 1121.5 267.307C1122.93 265.899 1124.86 265.107 1126.88 265.105H1154.67C1156.68 265.107 1158.62 265.899 1160.04 267.307C1161.47 268.715 1162.27 270.624 1162.27 272.615V343.58Z" fill="white"/>
<path d="M1162.27 343.58H1119.27V272.615C1119.27 270.624 1120.08 268.715 1121.5 267.307C1122.93 265.899 1124.86 265.107 1126.88 265.105H1154.67C1156.68 265.107 1158.62 265.899 1160.04 267.307C1161.47 268.715 1162.27 270.624 1162.27 272.615V343.58ZM1120.96 341.911H1160.58V272.615C1160.58 271.066 1159.96 269.582 1158.85 268.487C1157.74 267.392 1156.23 266.776 1154.67 266.774H1126.88C1125.31 266.776 1123.8 267.392 1122.7 268.487C1121.59 269.582 1120.96 271.066 1120.96 272.615V341.911Z" fill="#3F3D56"/>
<path d="M922.271 372.387C967.559 372.387 1004.27 336.363 1004.27 291.926C1004.27 247.488 967.559 211.464 922.271 211.464C876.984 211.464 840.271 247.488 840.271 291.926C840.271 336.363 876.984 372.387 922.271 372.387Z" fill="#F2F2F2"/>
<path d="M949.904 524.37H887.639C885.156 524.367 882.774 523.359 881.018 521.566C879.262 519.773 878.274 517.343 878.271 514.807V462.41C878.274 459.875 879.262 457.445 881.018 455.652C882.775 453.86 885.156 452.851 887.639 452.848H949.904C952.388 452.851 954.769 453.86 956.525 455.652C958.281 457.445 959.269 459.875 959.271 462.41V514.807C959.269 517.343 958.281 519.773 956.525 521.566C954.769 523.358 952.388 524.367 949.904 524.37Z" fill="#E6E6E6"/>
<path d="M1149.9 524.37H1087.64C1085.16 524.367 1082.77 523.358 1081.02 521.566C1079.26 519.773 1078.27 517.343 1078.27 514.807V462.41C1078.27 459.875 1079.26 457.445 1081.02 455.652C1082.77 453.86 1085.16 452.851 1087.64 452.848H1149.9C1152.39 452.851 1154.77 453.86 1156.52 455.652C1158.28 457.445 1159.27 459.875 1159.27 462.41V514.807C1159.27 517.343 1158.28 519.773 1156.52 521.566C1154.77 523.358 1152.39 524.367 1149.9 524.37Z" fill="#E6E6E6"/>
<path d="M826.271 393.653V360.392C826.271 357.837 826.955 355.327 828.252 353.117C829.549 350.907 831.413 349.076 833.657 347.808L1020.58 242.182C1022.9 240.871 1025.53 240.212 1028.21 240.276C1030.88 240.34 1033.48 241.125 1035.73 242.546L1202.49 347.708C1204.57 349.018 1206.28 350.824 1207.47 352.96C1208.65 355.096 1209.27 357.492 1209.27 359.928V393.653C1209.27 397.497 1207.73 401.184 1204.98 403.902C1202.23 406.621 1198.5 408.148 1194.61 408.148H840.932C837.044 408.148 833.315 406.621 830.565 403.902C827.816 401.184 826.271 397.497 826.271 393.653Z" fill="#01A27C"/>
<path opacity="0.2" d="M1194.61 394.439H840.932C837.044 394.439 833.315 392.848 830.565 390.016C827.816 387.185 826.272 383.345 826.271 379.34V393.049C826.272 397.054 827.816 400.894 830.565 403.725C833.315 406.557 837.044 408.148 840.932 408.148H1194.61C1198.5 408.148 1202.23 406.557 1204.98 403.725C1207.73 400.894 1209.27 397.054 1209.27 393.049V379.34C1209.27 383.345 1207.73 387.185 1204.98 390.016C1202.23 392.848 1198.5 394.439 1194.61 394.439Z" fill="black"/>
<path d="M1225.27 509.314C1225.27 483.444 1245.87 422.055 1271.27 422.055C1296.68 422.055 1317.27 483.444 1317.27 509.314C1317.27 521.738 1312.43 533.652 1303.8 542.437C1295.17 551.222 1283.47 556.157 1271.27 556.157C1259.07 556.157 1247.37 551.222 1238.74 542.437C1230.12 533.652 1225.27 521.738 1225.27 509.314Z" fill="#01A27C"/>
<path d="M1271.27 620.725C1271.01 620.725 1270.75 620.638 1270.56 620.483C1270.38 620.329 1270.27 620.119 1270.27 619.9V453.673C1270.27 453.454 1270.38 453.245 1270.56 453.09C1270.75 452.935 1271.01 452.848 1271.27 452.848C1271.54 452.848 1271.79 452.935 1271.98 453.09C1272.17 453.245 1272.27 453.454 1272.27 453.673V619.9C1272.27 620.119 1272.17 620.329 1271.98 620.483C1271.79 620.638 1271.54 620.725 1271.27 620.725Z" fill="#846257"/>
<path d="M1271.06 526.356C1270.9 526.356 1270.75 526.313 1270.62 526.233C1270.5 526.153 1270.4 526.038 1270.33 525.904C1270.27 525.77 1270.26 525.621 1270.28 525.478C1270.31 525.334 1270.38 525.201 1270.49 525.095L1292.92 502.747C1292.99 502.676 1293.07 502.619 1293.17 502.58C1293.26 502.54 1293.36 502.518 1293.47 502.516C1293.57 502.514 1293.67 502.531 1293.77 502.566C1293.87 502.601 1293.95 502.654 1294.03 502.722C1294.1 502.789 1294.16 502.87 1294.2 502.96C1294.25 503.05 1294.27 503.146 1294.27 503.244C1294.27 503.342 1294.26 503.439 1294.22 503.531C1294.18 503.622 1294.13 503.706 1294.05 503.777L1271.63 526.125C1271.55 526.198 1271.46 526.256 1271.37 526.296C1271.27 526.336 1271.16 526.356 1271.06 526.356Z" fill="#846257"/>
<path d="M1271.41 486.622C1271.19 486.623 1270.99 486.547 1270.83 486.41L1249.55 468.163C1249.47 468.091 1249.4 468.005 1249.35 467.909C1249.31 467.812 1249.28 467.708 1249.27 467.602C1249.27 467.495 1249.28 467.389 1249.32 467.289C1249.36 467.189 1249.42 467.097 1249.5 467.018C1249.57 466.94 1249.67 466.876 1249.77 466.831C1249.87 466.786 1249.98 466.761 1250.1 466.756C1250.21 466.752 1250.32 466.768 1250.43 466.805C1250.54 466.841 1250.63 466.897 1250.72 466.969L1271.99 485.216C1272.12 485.326 1272.21 485.47 1272.25 485.629C1272.29 485.788 1272.28 485.954 1272.21 486.106C1272.15 486.258 1272.04 486.389 1271.9 486.481C1271.75 486.573 1271.58 486.622 1271.41 486.622V486.622Z" fill="#846257"/>
<path d="M0 464.607C0 426.664 30.6685 336.626 68.5 336.626C106.332 336.626 137 426.664 137 464.607C137 482.828 129.783 500.303 116.937 513.187C104.091 526.072 86.6673 533.31 68.5 533.31C50.3327 533.31 32.9094 526.072 20.0632 513.187C7.21694 500.303 0 482.828 0 464.607Z" fill="#01A27C"/>
<path d="M68.5 629.665C68.1022 629.665 67.7207 629.578 67.4394 629.424C67.1581 629.27 67 629.061 67 628.843V385.129C67 384.911 67.158 384.702 67.4393 384.548C67.7206 384.394 68.1022 384.307 68.5 384.307C68.8978 384.307 69.2793 384.394 69.5606 384.548C69.8419 384.702 70 384.911 70 385.129V628.843C70 629.061 69.8419 629.27 69.5606 629.424C69.2793 629.578 68.8978 629.665 68.5 629.665Z" fill="#846257"/>
<path d="M68.8866 501.523C68.7131 501.523 68.5433 501.472 68.3984 501.377C68.2536 501.281 68.1399 501.146 68.0716 500.986C68.0033 500.827 67.9833 500.652 68.0141 500.481C68.0449 500.311 68.1251 500.154 68.2449 500.028L105.471 461.069C105.634 460.9 105.857 460.801 106.092 460.795C106.327 460.79 106.555 460.878 106.725 461.039C106.895 461.201 106.994 461.424 107 461.658C107.005 461.893 106.917 462.12 106.755 462.29L69.5285 501.248C69.4458 501.335 69.3462 501.404 69.2358 501.451C69.1255 501.498 69.0067 501.523 68.8866 501.523Z" fill="#846257"/>
<path d="M67.164 438.941C66.9553 438.942 66.7541 438.865 66.6001 438.727L36.2718 411.558C36.1082 411.411 36.0107 411.207 36.0008 410.99C35.9909 410.773 36.0694 410.561 36.219 410.401C36.3686 410.24 36.577 410.145 36.7985 410.135C37.02 410.125 37.2363 410.202 37.3999 410.349L67.7282 437.518C67.8526 437.63 67.9396 437.775 67.978 437.936C68.0164 438.097 68.0043 438.265 67.9433 438.419C67.8823 438.573 67.7752 438.705 67.6361 438.798C67.4971 438.892 67.3325 438.941 67.164 438.941H67.164Z" fill="#846257"/>
<path d="M1238.73 631.486C1238.81 631.543 1238.89 631.595 1238.98 631.651H1307.11C1308.45 626.572 1308.92 621.486 1306.93 617.07C1304.09 610.777 1295.68 606.849 1288.99 609.551C1287.41 610.209 1286.03 611.234 1284.98 612.531C1282.37 608.139 1277.68 604.827 1272.27 604.831C1265.49 604.836 1259.86 610.04 1258.02 616.052C1255.06 611.359 1249.21 608.078 1243.49 609.489C1233.93 611.849 1230.91 625.808 1238.73 631.486Z" fill="#275B3F"/>
<path d="M532.46 580.825C532.54 580.883 532.623 580.934 532.704 580.991H600.843C602.178 575.911 602.65 570.826 600.655 566.409C597.814 560.116 589.404 556.188 582.718 558.891C581.134 559.548 579.755 560.574 578.709 561.87C576.096 557.478 571.409 554.167 565.999 554.17C559.222 554.175 553.587 559.38 551.748 565.392C548.786 560.698 542.937 557.418 537.22 558.829C527.658 561.189 524.637 575.148 532.46 580.825Z" fill="#275B3F"/>
<path d="M619.86 607.467C620.018 607.587 620.184 607.694 620.344 607.811H755.702C758.354 597.275 759.291 586.728 755.329 577.568C749.684 564.516 732.979 556.369 719.698 561.974C716.551 563.338 713.81 565.464 711.732 568.153C706.542 559.044 697.232 552.176 686.485 552.183C673.022 552.193 661.828 562.988 658.174 575.457C652.292 565.722 640.672 558.918 629.315 561.845C610.32 566.74 604.32 595.692 619.86 607.467Z" fill="#275B3F"/>
<path d="M305.86 605.481C306.018 605.6 306.184 605.708 306.344 605.825H441.702C444.354 595.288 445.291 584.741 441.329 575.581C435.684 562.53 418.979 554.382 405.698 559.987C402.551 561.351 399.81 563.478 397.732 566.166C392.542 557.057 383.232 550.189 372.485 550.197C359.022 550.206 347.828 561.001 344.174 573.471C338.292 563.735 326.672 556.932 315.315 559.859C296.32 564.754 290.32 593.705 305.86 605.481Z" fill="#275B3F"/>
<path d="M856.543 660.459H862.271L861.726 649.532H853.271L856.543 660.459Z" fill="#FFB8B8"/>
<path d="M855.271 658.473L866.265 658.472H866.265C867.186 658.472 868.097 658.646 868.947 658.985C869.797 659.323 870.569 659.819 871.219 660.444C871.87 661.07 872.386 661.812 872.738 662.629C873.09 663.446 873.271 664.322 873.271 665.206V665.425L855.272 665.426L855.271 658.473Z" fill="#2F2E41"/>
<path d="M799.271 653.289L804.609 656.485L810.271 646.496L803.813 642.578L799.271 653.289Z" fill="#FFB8B8"/>
<path d="M800.963 649.532L810.044 655.413L810.044 655.413C810.804 655.905 811.464 656.55 811.987 657.309C812.509 658.069 812.884 658.929 813.089 659.84C813.295 660.752 813.327 661.697 813.184 662.621C813.041 663.546 812.726 664.432 812.256 665.228L812.14 665.426L797.271 655.797L800.963 649.532Z" fill="#2F2E41"/>
<path d="M829 456.325C821.999 409.638 830.5 393.744 857.5 389.274L885.999 392.254C900.499 396.227 899.499 403.677 908.999 443.908C908.999 443.908 898.167 452.002 896.643 452.116C897.219 456.256 896.908 499.373 902.5 524.37H831.5C831.249 493.543 848 459.305 848 456.325C848 453.345 829 456.325 829 456.325Z" fill="#9F9ADD" stroke="#F6B0B0"/>
<path d="M848.5 456.325H828.5C828.633 485.315 851.991 490.033 904.5 493.079V479.172C865.307 473.441 846.442 469.654 848.5 456.325Z" fill="#B77E61"/>
<path d="M912.5 456.325L906.5 444.902C888.066 456.569 890.009 463.478 906.5 476.192L912.5 456.325Z" fill="#B77E61"/>
<path d="M848.5 456.325H828.5C828.633 485.315 851.991 490.033 904.5 493.079V479.172C865.307 473.441 846.442 469.654 848.5 456.325Z" stroke="#F6B0B0"/>
<path d="M912.5 456.325L906.5 444.902C888.066 456.569 890.009 463.478 906.5 476.192L912.5 456.325Z" stroke="#F6B0B0"/>
<path d="M870 343.083C883.836 346.757 888.188 350.445 886.888 363.006C891.239 348.387 889.619 341.239 874.882 330.534C857.663 322.499 843.674 330.358 836.999 344.573C829.04 361.525 838.035 383.754 862.375 385.3C860.934 378.386 860.94 375.163 855.5 369.904C864.266 360.13 864.962 354.812 870 343.083Z" fill="#071931"/>
<path d="M948 392.393C959.36 403.099 968.193 404.15 985 386.942C968.193 369.733 952 368.953 948 392.393Z" fill="#256D7C"/>
<path d="M947.099 384.438C958.613 373.896 960.261 365.212 944.102 347.402C925.691 362.907 923.823 378.904 947.099 384.438Z" fill="#256D7C"/>
<path d="M933.682 384.096C930.633 368.839 924.034 362.913 900.308 367.317C904.022 391.008 916.787 400.936 933.682 384.096Z" fill="#256D7C" stroke="#1D5964"/>
<path d="M799.5 383.811C795.759 372.652 792.663 369.143 785 368.91M801 387.784C804.741 376.625 809.5 378.347 816.5 378.347" stroke="#BE9285" stroke-width="2"/>
<path d="M942 378.347C942 380.83 930 450.365 930 450.365L936.5 451.855L944.5 378.347C944.5 378.347 942 375.864 942 378.347Z" fill="#AE8070"/>
<path d="M796 589.434L1281.5 630.658C1416.63 635.183 1605.5 639.102 1614 631.255C1623.91 628.65 1653.66 629.377 1692 626.54C1713.61 624.94 1737.95 622.209 1763 617.111C1837.63 608.755 1912.49 599.864 1913.5 599.864C1915.5 599.864 1925.5 596.388 1925.5 596.388V729H310.5L11.5 719.066V630.658C130.202 610.282 210.989 598.436 310.5 590.829C346.903 588.045 385.812 585.83 430 583.971C568.468 577.273 648.337 578.459 796 589.434Z" fill="#5FBB72"/>
<path d="M253.5 480.662L138.5 544.237C135.035 546.982 129.5 539.767 129.5 539.767C129.5 539.767 131.75 526.453 143.5 516.919C142.64 513.833 147.739 506.927 161.5 499.536L180 488.609C205.76 473.188 192 480.166 219.5 472.219C247 464.272 253.5 480.662 253.5 480.662Z" fill="#073F5A" stroke="#24513A"/>
<path d="M129 553.177C124.75 545.478 130.5 541.257 130.5 541.257L137.416 545.702L137.5 544.733V545.23H264L265 549.203H261.5L258.513 619.921L254 720.557L159.5 723.537L156 614.765L147.5 604.831L136.5 556.272C133.453 556.617 130.556 555.996 129 553.177Z" fill="#073F5A"/>
<path d="M258.5 620.228L258.513 619.921M258.513 619.921L261.5 549.203H265L264 545.23H137.5V544.733L136.5 556.272M258.513 619.921L254 720.557L159.5 723.537L156 614.765L147.5 604.831L136.5 556.272M136.5 556.272C133.453 556.617 130.556 555.996 129 553.177C124.75 545.478 130.5 541.257 130.5 541.257L147.5 552.184C147.5 552.184 141.775 555.676 136.5 556.272Z" stroke="#24513A"/>
<ellipse cx="159" cy="701.683" rx="21" ry="20.3637" fill="black"/>
<ellipse cx="157.5" cy="700.69" rx="11.5" ry="11.4235" fill="#C4C4C4"/>
<path d="M273.5 604.831C282.5 622.711 292 608.308 292 608.308L273.5 604.831Z" fill="#008EA4"/>
<path d="M245 611.785L233 590.428L221.5 597.878L230 611.785M245 611.785L236 625.692H219.5V630.162L209.5 617.745L219.5 608.308V611.785H230M245 611.785H230M178 623.208L191 602.844L194.5 604.831L188.5 590.428L174.5 593.904L178 596.884L170 611.785L178 623.208ZM178 623.208H201.5V611.785H187" stroke="white" stroke-width="3"/>
<path d="M200.5 562.614H216.5L226 576.521L229.5 574.534L226 589.931L209 585.957L212 582.977L200.5 562.614ZM200.5 562.614L188 580.991L198.5 588.938L207.5 576.521" stroke="white" stroke-width="3"/>
<path d="M270 581.984L285.5 590.924H298L292.5 611.785L303.5 623.208C303.5 623.208 310.5 629.168 316.5 644.068C322.5 658.969 322.5 688.769 322.5 688.769V716.086L326.5 725.523H289H233L238.5 716.086C236.821 690.538 233.5 674.366 241 653.009C244.591 642.782 248.182 635.972 250.95 631.652C253.963 626.949 256 625.195 256 625.195C256 625.195 259 621.718 264 616.751C269 611.785 273 611.785 273 611.785L270 581.984Z" fill="#0096AE"/>
<path d="M275.507 723.747C282.484 665.825 239.769 662.159 239.769 662.159L275.507 723.747Z" fill="#008EA4"/>
<path d="M84 642.082C72.8547 643.856 64.0001 652.511 64.0001 652.511C61.6667 675.69 58.9001 722.345 66.5001 723.537H159L156 634.135C156 634.135 148.5 629.665 143.5 629.665H138L129.5 630.658C123.5 632.148 106 648.539 106 648.539C106 648.539 94.6944 642.235 84 642.082Z" fill="#275B3F"/>
<path d="M47 625.195C32.8398 613.08 7.66513 617.314 7.49984 616.763V723.04H74C74 723.04 89.5 712.113 90 696.219C87.5 676.849 77.1294 669.705 64 665.426C64 665.426 63.6957 660.354 62.0699 653.505C59.9728 644.671 55.6771 632.878 47 625.195Z" fill="#275B3F"/>
<path d="M295 591.918V584.964H347.5V587.944L295 591.918Z" fill="#5F76ED"/>
<path d="M882.126 345.548C868.919 341.425 861.101 340.596 858.192 359.473C858.192 359.473 854.943 358.223 853.739 360.634C852.835 362.442 852.413 370.162 855.408 367.557C855.408 367.557 855.408 375.744 857.338 375.744C859.268 375.744 859.268 383.93 859.268 383.93L858.192 388.08L864.826 398.794L876 398.794L876 390.764L876 383.945C878.593 383.626 881.702 382.525 883.5 379.34C886.993 373.157 886.861 371.142 886.983 366.427C887.081 362.675 887.684 351.887 886 350.533C885.128 346.636 883.122 347.491 882.5 346.56C882.286 346.239 882.126 345.548 882.126 345.548Z" fill="#C48671"/>
<path d="M313 497.052L307.5 489.602C297.655 494.05 292.093 497.388 282 505.993L284.5 519.403L291 521.39V526.853H297.5L306 537.283C301.837 537.937 299.202 538.944 294.5 540.76V583.971H348L345.5 516.423C343.144 495.042 339.607 486.588 322 489.602L313 497.052Z" fill="#F47E7E"/>
<path d="M281.5 505.993C267.049 502.265 259.512 497.675 247 484.636L239 489.106C249.865 502.563 257.018 509.022 271.5 518.906C277.494 519.457 280.755 519.679 284 517.913L281.5 505.993Z" fill="#EDAD8A"/>
<path d="M248 499.536L243.5 495.066V499.536L237.5 508.973L231 522.88L226.5 538.277L237.5 541.753L245 522.88L248 504.999V499.536Z" fill="#27603D"/>
<path d="M297.501 526.356H290L288.5 525.86C287.485 529.135 251 508.476 251 505.993C251 503.509 246 505.993 246 505.993V508.476C246.748 509.746 242.809 508.624 234 508.476C225.192 508.328 230.133 522.722 231.5 522.88C232.868 523.037 255.5 522.88 255.5 522.88C255.5 522.88 280.297 538.788 294.001 540.76L305.501 536.29L297.501 526.356Z" fill="#EDAD8A"/>
<path d="M610.609 452.418C610.609 452.418 602.635 523.8 542.609 536.356C506.39 536.359 479.469 529.226 463.197 509.021C407.56 518.626 391.691 485.109 384 425.035C387.806 369.284 395.937 345.006 419.5 330.732C443.063 316.458 463.197 371.459 463.197 371.459C480.752 333.275 502.319 312.579 528.609 301.924C564.16 287.517 627.128 424.458 610.609 452.418Z" fill="#01A27C"/>
<path d="M629.697 359.539C606.134 345.265 584 403.198 584 403.198C566.185 463.573 531 553.177 587.5 553.177C644 553.177 657.506 513.916 665.197 453.841C661.391 398.091 653.261 373.812 629.697 359.539Z" fill="#01A27C"/>
<path d="M411 432.982L429 451.855V464.272C429 464.272 408 442.418 405 439.438C402.001 436.458 403.462 428.609 411 432.982Z" fill="#846257"/>
<path d="M491.13 409.09L518 437.282V455.828C518 455.828 486.652 423.186 482.174 418.735C477.696 414.284 479.878 402.559 491.13 409.09Z" fill="#846257"/>
<path d="M556.87 454.785L530 482.976V501.523C530 501.523 561.348 468.88 565.826 464.429C570.304 459.978 568.122 448.253 556.87 454.785Z" fill="#846257"/>
<path d="M621.263 476.881L605 494.141V505.496L626.684 482.785C626.684 482.785 628.074 472.882 621.263 476.881Z" fill="#846257"/>
<path d="M582.538 508.434L598.801 525.694V537.049L577.117 514.339C577.117 514.339 575.727 504.435 582.538 508.434Z" fill="#846257"/>
<path d="M517 369.405C516.325 374.849 517 607.809 517 607.809H532.5L530 369.405C527.472 359.34 517.676 363.962 517 369.405Z" fill="#846257"/>
<path d="M429.266 401.174C428.668 406.618 429.266 639.598 429.266 639.598H443L440.785 401.174C438.544 391.108 429.864 395.73 429.266 401.174Z" fill="#846257"/>
<path d="M597.19 459.085C596.763 462.98 597.19 629.665 597.19 629.665H607L605.418 459.085C603.817 451.883 597.617 455.19 597.19 459.085Z" fill="#846257"/>
<path d="M1348 236.298L1343 632.148H1368L1354 236.298H1348Z" fill="white"/>
<path d="M958 453.842L947 504.999L905.5 498.543V446.888L958 453.842Z" fill="#F57340"/>
<path d="M693.5 331.66V330.17" stroke="black"/>
<path d="M871 400.697C864.773 399.333 862.372 396.059 858.5 389.274C859.982 396.557 861.334 400.461 866 406.658L871 400.697Z" fill="#C4C4C4"/>
<path d="M880 390.267C879.5 390.267 878 389.274 878 389.274C878.465 393.577 878.287 395.737 876.5 398.711L880 401.691C880 401.691 880.5 390.267 880 390.267Z" fill="#C4C4C4"/>
<path d="M871 400.697C864.773 399.333 862.372 396.059 858.5 389.274C859.982 396.557 861.334 400.461 866 406.658L871 400.697Z" stroke="#F6B0B0"/>
<path d="M880 390.267C879.5 390.267 878 389.274 878 389.274C878.465 393.577 878.287 395.737 876.5 398.711L880 401.691C880 401.691 880.5 390.267 880 390.267Z" stroke="#F6B0B0"/>
<path d="M902.5 524.37H831V595.891H859.5C859.5 595.891 866 556.654 870 560.627C874 564.6 875.5 595.891 875.5 595.891L905.5 599.864L902.5 524.37Z" fill="#CCC1C1"/>
<path d="M830 594.898L843 596.884C843 596.884 841.552 594.189 840.879 592.883C838.173 544.216 878.885 528.327 903 526.357H830V594.898Z" fill="#C1BABA" fill-opacity="0.79"/>
<path d="M125 612.778C125 612.778 110.916 95.739 105 201.53C98.5002 317.753 94.5 616.751 94.5 616.751L125 612.778Z" fill="#F4FFFF"/>
<path d="M193 257.655L114 196.067C118.595 179.204 127.5 178.187 152.5 192.591C173 207.491 181.361 224.258 193 257.655Z" fill="#F4FFFF"/>
<path d="M3 208.484C42.1179 202.073 63.5478 197.944 99.5 188.12C100.735 204.557 94.5 213.947 69.5 220.404C40 222.888 25.7722 216.586 3 208.484Z" fill="#F4FFFF"/>
<path d="M115.808 81.5475C112.347 120.78 111.052 142.426 111.705 179.46C95.3702 176.567 87.1086 171.12 87.0195 145.46C91.9226 116.458 102.253 101.448 115.808 81.5475Z" fill="#F4FFFF"/>
<path d="M1244 253.185C1283.12 246.774 1304.55 242.645 1340.5 232.821C1341.73 249.258 1335.5 258.648 1310.5 265.105C1281 267.589 1266.77 261.287 1244 253.185Z" fill="#F4FFFF"/>
<path d="M1460.36 271.397C1420.3 257.567 1398.12 250.449 1359.84 240.662C1364.76 227.852 1374.26 223.833 1400.74 230.917C1430.08 243.095 1441.44 254.545 1460.36 271.397Z" fill="#F4FFFF"/>
<path d="M1357.81 128.235C1354.35 167.468 1353.05 189.114 1353.71 226.148C1337.37 223.255 1329.11 217.807 1329.02 192.148C1333.92 163.145 1344.25 148.136 1357.81 128.235Z" fill="#F4FFFF"/>
<path d="M1634.53 567.521C1636.78 569.111 1646.35 569.83 1646.35 569.83C1646.35 569.83 1642.83 561.322 1640.57 559.728C1640.04 559.282 1639.42 558.945 1638.74 558.74C1638.07 558.535 1637.36 558.466 1636.66 558.537C1635.95 558.608 1635.27 558.818 1634.66 559.153C1634.05 559.489 1633.51 559.942 1633.09 560.485C1632.68 561.028 1632.38 561.648 1632.22 562.306C1632.07 562.964 1632.06 563.645 1632.2 564.307C1632.33 564.968 1632.61 565.595 1633.02 566.148C1633.42 566.7 1633.95 567.167 1634.55 567.517L1634.53 567.521Z" fill="#6C63FF"/>
<path opacity="0.1" d="M1634.53 567.521C1636.78 569.111 1646.35 569.83 1646.35 569.83C1646.35 569.83 1642.83 561.322 1640.57 559.728C1640.04 559.282 1639.42 558.945 1638.74 558.74C1638.07 558.535 1637.36 558.466 1636.66 558.537C1635.95 558.608 1635.27 558.818 1634.66 559.153C1634.05 559.489 1633.51 559.942 1633.09 560.485C1632.68 561.028 1632.38 561.648 1632.22 562.306C1632.07 562.964 1632.06 563.645 1632.2 564.307C1632.33 564.968 1632.61 565.595 1633.02 566.148C1633.42 566.7 1633.95 567.167 1634.55 567.517L1634.53 567.521Z" fill="#6C63FF"/>
<path d="M1687.55 576.26C1685.2 577.454 1676.26 576.627 1676.26 576.627C1676.26 576.627 1680.93 568.881 1683.28 567.687C1683.84 567.346 1684.47 567.126 1685.12 567.041C1685.77 566.955 1686.43 567.006 1687.06 567.19C1687.69 567.373 1688.28 567.686 1688.78 568.109C1689.29 568.531 1689.7 569.054 1690 569.645C1690.29 570.236 1690.46 570.882 1690.5 571.542C1690.54 572.203 1690.44 572.864 1690.21 573.484C1689.98 574.105 1689.63 574.671 1689.17 575.148C1688.72 575.625 1688.17 576.002 1687.56 576.255L1687.55 576.26Z" fill="#6C63FF"/>
<path d="M1683.2 594.601C1681.06 596.057 1671.99 596.717 1671.99 596.717C1671.99 596.717 1675.33 588.919 1677.47 587.459C1678.5 586.881 1679.73 586.68 1680.91 586.896C1682.1 587.111 1683.15 587.727 1683.87 588.622C1684.58 589.517 1684.91 590.627 1684.78 591.732C1684.66 592.838 1684.08 593.86 1683.18 594.597L1683.2 594.601Z" fill="#6C63FF"/>
<path d="M1663.03 579.164C1665.49 580.221 1674.84 579.489 1674.84 579.489C1674.84 579.489 1669.96 572.629 1667.5 571.571C1666.34 571.159 1665.03 571.137 1663.85 571.511C1662.67 571.885 1661.7 572.627 1661.13 573.588C1660.56 574.548 1660.44 575.657 1660.79 576.69C1661.14 577.724 1661.94 578.606 1663.02 579.16L1663.03 579.164Z" fill="#6C63FF"/>
<path d="M1661.35 601.772C1663.38 603.163 1671.99 603.792 1671.99 603.792C1671.99 603.792 1668.82 596.348 1666.79 594.953C1666.31 594.562 1665.75 594.268 1665.15 594.088C1664.54 593.909 1663.9 593.848 1663.27 593.911C1662.64 593.973 1662.02 594.157 1661.47 594.45C1660.92 594.744 1660.44 595.14 1660.06 595.615C1659.68 596.09 1659.42 596.633 1659.28 597.208C1659.14 597.784 1659.13 598.38 1659.25 598.959C1659.38 599.538 1659.63 600.087 1659.99 600.57C1660.36 601.054 1660.83 601.462 1661.37 601.768L1661.35 601.772Z" fill="#6C63FF"/>
<path opacity="0.1" d="M1687.55 576.26C1685.2 577.454 1676.26 576.627 1676.26 576.627C1676.26 576.627 1680.93 568.881 1683.28 567.687C1683.84 567.346 1684.47 567.126 1685.12 567.041C1685.77 566.955 1686.43 567.006 1687.06 567.19C1687.69 567.373 1688.28 567.686 1688.78 568.109C1689.29 568.531 1689.7 569.054 1690 569.645C1690.29 570.236 1690.46 570.882 1690.5 571.542C1690.54 572.203 1690.44 572.864 1690.21 573.484C1689.98 574.105 1689.63 574.671 1689.17 575.148C1688.72 575.625 1688.17 576.002 1687.56 576.255L1687.55 576.26Z" fill="#6C63FF"/>
<path opacity="0.1" d="M1683.2 594.601C1681.06 596.057 1671.99 596.717 1671.99 596.717C1671.99 596.717 1675.33 588.919 1677.47 587.459C1678.5 586.881 1679.73 586.68 1680.91 586.896C1682.1 587.111 1683.15 587.727 1683.87 588.622C1684.58 589.517 1684.91 590.627 1684.78 591.732C1684.66 592.838 1684.08 593.86 1683.18 594.597L1683.2 594.601Z" fill="#6C63FF"/>
<path opacity="0.1" d="M1663.03 579.164C1665.49 580.221 1674.84 579.489 1674.84 579.489C1674.84 579.489 1669.96 572.629 1667.5 571.571C1666.34 571.159 1665.03 571.137 1663.85 571.511C1662.67 571.885 1661.7 572.627 1661.13 573.588C1660.56 574.548 1660.44 575.657 1660.79 576.69C1661.14 577.724 1661.94 578.606 1663.02 579.16L1663.03 579.164Z" fill="#6C63FF"/>
<path opacity="0.1" d="M1661.35 601.772C1663.38 603.163 1671.99 603.792 1671.99 603.792C1671.99 603.792 1668.82 596.348 1666.79 594.953C1666.31 594.562 1665.75 594.268 1665.15 594.088C1664.54 593.909 1663.9 593.848 1663.27 593.911C1662.64 593.973 1662.02 594.157 1661.47 594.45C1660.92 594.744 1660.44 595.14 1660.06 595.615C1659.68 596.09 1659.42 596.633 1659.28 597.208C1659.14 597.784 1659.13 598.38 1659.25 598.959C1659.38 599.538 1659.63 600.087 1659.99 600.57C1660.36 601.054 1660.83 601.462 1661.37 601.768L1661.35 601.772Z" fill="#6C63FF"/>
<path opacity="0.1" d="M1505.18 686.556C1623.27 675.116 1717.5 650.535 1715.64 631.653C1713.79 612.771 1616.56 606.738 1498.47 618.178C1380.38 629.618 1286.15 654.198 1288 673.08C1289.86 691.962 1387.09 697.996 1505.18 686.556Z" fill="#6C63FF"/>
<path d="M1690.51 576.906H1560.87V627.849H1690.51V576.906Z" fill="#6F7D95"/>
<path d="M1528.11 551.485L1546.37 592.472L1582.54 590.276L1584 573.443L1585.09 553.681L1533.95 550.019L1528.11 551.485Z" fill="#4B5C7A"/>
<path d="M1528.11 551.836C1528.11 551.836 1535.17 544.916 1543.75 543.376C1552.33 541.835 1580.99 544.912 1580.99 544.912L1585.09 552.206L1584.32 555.679L1528.11 551.836Z" fill="#008EA5"/>
<path d="M1597.91 572.66H1466.85V610.868H1597.91V572.66Z" fill="#4B5C7A"/>
<path d="M1565.6 598.45C1569.05 587.048 1562.17 579.555 1562.17 579.555L1550.77 571.692C1550.76 571.719 1550.74 571.745 1550.73 571.77C1549.25 570.052 1548.19 568.019 1547.63 565.829C1547.59 565.691 1547.56 565.549 1547.53 565.398C1548.57 564.633 1549.48 563.709 1550.23 562.661C1552.09 561.536 1552.92 559.725 1553.24 557.919C1554.43 556.166 1555.38 554.262 1556.07 552.259C1556.18 551.935 1556.28 551.605 1556.36 551.271C1556.58 550.65 1556.67 549.993 1556.64 549.336C1556.55 548.604 1556.3 547.899 1555.92 547.266C1554 543.818 1550.54 541.417 1547.04 539.459C1545.81 538.733 1544.51 538.145 1543.15 537.709C1541.5 537.239 1539.76 537.157 1538.07 537.47C1536.38 537.782 1534.79 538.482 1533.42 539.511C1532.75 539.985 1532.21 540.608 1531.84 541.33C1531.69 541.658 1531.58 542.001 1531.51 542.352C1531.34 542.951 1531.21 543.558 1531.1 544.171C1531 544.464 1530.87 544.742 1530.69 544.995C1530.22 545.641 1529.43 546.128 1529.32 546.917C1529.32 546.963 1529.32 547.009 1529.32 547.055C1529.24 547.205 1529.18 547.369 1529.16 547.538C1529.12 547.887 1529.2 548.237 1529.38 548.543C1529.4 548.594 1529.43 548.642 1529.46 548.689C1528.89 549.505 1528.43 550.389 1528.07 551.319C1527.91 551.404 1527.76 551.499 1527.61 551.603L1527.49 551.694V551.952L1527.41 552.009L1527.25 556.186L1527.34 556.255C1527.47 558.203 1528.06 560.094 1529.07 561.771C1530.08 563.449 1531.48 564.866 1533.15 565.907C1533.21 566.174 1533.26 566.446 1533.31 566.73C1533.57 568.234 1533.68 569.761 1533.63 571.287C1533.61 571.155 1533.61 571.022 1533.63 570.89C1530.47 569.481 1523.59 573.378 1520.82 575.102C1520.4 575.299 1520.01 575.55 1519.65 575.848L1519.6 575.882C1517.7 577.408 1513.93 581.65 1510.94 592.553C1506.8 607.766 1507.23 611.215 1504.21 614.741C1501.19 618.267 1498.19 643.111 1498.19 643.111L1504.27 644.728L1505.05 642.262C1512.27 648.772 1532.51 651.906 1532.51 651.906L1533.13 650.004C1536.23 651.108 1541.42 649.431 1541.42 649.431C1549 646.784 1551.84 640.068 1557.35 631.209C1562.85 622.35 1565.6 598.45 1565.6 598.45ZM1535.01 644.288L1549.02 601.364C1550.29 608.029 1544.69 618.526 1544.19 625.389C1543.88 629.803 1538.68 638.576 1535.01 644.288Z" fill="url(#paint0_linear_93_336)"/>
<path d="M1551.96 552.919C1551.96 552.919 1554.22 562.256 1547.5 563.883C1540.78 565.51 1545.21 559.686 1545.21 559.686L1551.69 552.849L1551.96 552.919Z" fill="#472727"/>
<path d="M1522.49 574.076C1522.49 574.076 1517.12 576.234 1513.18 590.772C1509.24 605.31 1509.63 608.591 1506.79 611.97C1503.95 615.35 1501.04 639.065 1501.04 639.065L1506.72 640.585L1511.66 624.735L1525.26 582.864L1522.49 574.076Z" fill="#DDE0E4"/>
<path opacity="0.05" d="M1522.49 574.076C1522.49 574.076 1517.12 576.234 1513.18 590.772C1509.24 605.31 1509.63 608.591 1506.79 611.97C1503.95 615.35 1501.04 639.065 1501.04 639.065L1506.72 640.585L1511.66 624.735L1525.26 582.864L1522.49 574.076Z" fill="black"/>
<path d="M1552.33 573.256C1552.33 573.256 1529.36 584.653 1532.72 577.218C1534.38 573.547 1534.32 569.74 1533.83 566.802C1533.56 565.072 1533.07 563.379 1532.39 561.759C1532.39 561.759 1548 549.703 1547.09 559.546C1546.87 561.664 1547.02 563.804 1547.53 565.873C1548.88 571.094 1552.33 573.256 1552.33 573.256Z" fill="#DB8B8B"/>
<path opacity="0.1" d="M1546.63 565.844C1545.24 566.997 1543.61 567.794 1541.87 568.17C1540.12 568.546 1538.32 568.489 1536.6 568.005C1535.6 567.726 1534.63 567.306 1533.74 566.756C1533.48 565.033 1533.02 563.347 1532.38 561.734C1532.38 561.734 1547.05 549.727 1546.19 559.53C1545.99 561.645 1546.14 563.78 1546.63 565.844Z" fill="black"/>
<path d="M1551.74 559.381C1553.43 553.154 1549.72 546.746 1543.45 545.069C1537.18 543.392 1530.73 547.081 1529.04 553.309C1527.35 559.537 1531.06 565.945 1537.33 567.621C1543.6 569.298 1550.05 565.609 1551.74 559.381Z" fill="#DB8B8B"/>
<path opacity="0.1" d="M1533.9 550.685C1533.56 550.87 1533.18 550.991 1532.78 551.043C1532.38 551.094 1531.98 551.074 1531.59 550.984C1531.21 550.894 1530.84 550.735 1530.53 550.518C1530.21 550.301 1529.95 550.029 1529.75 549.719C1529.58 549.443 1529.51 549.128 1529.54 548.815C1529.65 548.106 1530.44 547.666 1530.92 547.079C1531.67 546.13 1531.53 544.83 1532.07 543.775C1532.45 543.131 1532.99 542.573 1533.65 542.146C1534.99 541.215 1536.57 540.579 1538.25 540.29C1539.92 540.001 1541.65 540.067 1543.3 540.483C1544.64 540.871 1545.93 541.395 1547.14 542.044C1550.6 543.792 1554.01 545.931 1555.89 549.039C1556.27 549.61 1556.51 550.244 1556.6 550.901C1556.62 551.611 1556.48 552.318 1556.18 552.979C1555.49 554.805 1554.53 556.541 1553.31 558.141C1552.91 557.696 1552.4 557.333 1551.82 557.077C1551.53 556.955 1551.2 556.918 1550.88 556.97C1550.57 557.022 1550.28 557.16 1550.05 557.367C1549.65 557.819 1549.41 558.683 1548.8 558.479C1548.4 558.349 1548.41 557.864 1548.43 557.489C1548.51 555.859 1547.51 554.323 1546.16 553.223C1544.81 552.123 1543.14 551.398 1541.49 550.685C1540.3 550.172 1538.72 548.994 1537.43 548.787C1535.81 548.522 1535.05 550.054 1533.9 550.685Z" fill="black"/>
<path d="M1535.09 550.083C1534.77 550.282 1534.41 550.413 1534.03 550.468C1533.66 550.524 1533.27 550.502 1532.91 550.405C1532.54 550.308 1532.2 550.137 1531.9 549.903C1531.6 549.669 1531.35 549.377 1531.16 549.043C1531 548.746 1530.93 548.407 1530.96 548.069C1531.06 547.306 1531.82 546.832 1532.27 546.2C1532.98 545.178 1532.85 543.778 1533.36 542.642C1533.72 541.948 1534.23 541.347 1534.86 540.887C1536.13 539.884 1537.62 539.2 1539.21 538.889C1540.8 538.577 1542.44 538.649 1544 539.097C1545.27 539.514 1546.49 540.078 1547.64 540.777C1550.92 542.659 1554.15 544.963 1555.93 548.311C1556.29 548.925 1556.51 549.608 1556.6 550.316C1556.62 551.081 1556.48 551.842 1556.2 552.553C1555.55 554.52 1554.63 556.389 1553.49 558.113C1553.1 557.633 1552.62 557.242 1552.07 556.967C1551.8 556.836 1551.49 556.795 1551.19 556.851C1550.88 556.907 1550.61 557.057 1550.4 557.279C1550.02 557.766 1549.79 558.696 1549.21 558.477C1548.84 558.336 1548.84 557.814 1548.86 557.41C1548.94 555.655 1547.98 554.001 1546.71 552.817C1545.43 551.632 1543.84 550.851 1542.28 550.083C1541.16 549.53 1539.66 548.262 1538.43 548.039C1536.91 547.749 1536.19 549.403 1535.09 550.083Z" fill="#472727"/>
<path d="M1540.76 575.45C1540.76 575.45 1550.06 573.652 1550.46 572.181L1561.09 579.59C1561.09 579.59 1567.49 586.665 1564.22 597.495C1564.22 597.495 1561.55 620.187 1556.37 628.609C1551.19 637.031 1548.22 647.942 1541.12 650.49C1541.12 650.49 1534.3 646.148 1532.05 646.2C1532.05 646.2 1543.6 629.669 1544.1 623.16C1544.59 616.651 1549.87 606.672 1548.72 600.356L1533.07 648.367C1533.07 648.367 1507.87 644.505 1505.32 636.246C1505.32 636.246 1507.49 633.024 1507.08 629.759C1506.68 626.494 1516.59 601.931 1516.59 601.931L1521.34 576.317C1521.34 576.317 1530.72 569.842 1534.46 571.524C1534.44 571.499 1533.76 574.695 1540.76 575.45Z" fill="#DDE0E4"/>
<g opacity="0.1">
<path opacity="0.1" d="M1544.19 554.869C1541.9 551.76 1537.52 554.312 1536.8 554.757L1535.67 554.645C1534.69 553.582 1531.68 550.758 1528.85 552.835L1528.73 552.926L1528.56 556.912L1528.68 557.007C1529.5 557.634 1530.42 558.105 1531.41 558.398C1532.04 558.581 1532.7 558.613 1533.34 558.493C1533.82 558.384 1534.26 558.173 1534.65 557.874C1535.03 557.576 1535.34 557.197 1535.57 556.765L1536.15 556.804L1536.59 556.722C1536.67 557.181 1536.86 557.617 1537.13 558C1537.4 558.382 1537.75 558.704 1538.15 558.942C1540.1 560.034 1542.93 558.942 1543.05 558.92L1543.2 558.864L1544.24 555.007L1544.19 554.869ZM1542.72 558.376C1542.14 558.57 1539.96 559.209 1538.49 558.376C1538.13 558.149 1537.82 557.841 1537.59 557.477C1537.37 557.114 1537.23 556.703 1537.19 556.277L1537.13 555.962L1536.18 556.156L1535.23 556.122L1535.13 556.303C1534.96 556.695 1534.7 557.043 1534.37 557.318C1534.04 557.594 1533.65 557.79 1533.23 557.892C1531.59 558.242 1529.69 556.981 1529.2 556.623L1529.34 553.254C1531.8 551.609 1534.51 554.278 1535.3 555.15L1535.38 555.241L1536.96 555.396L1537.06 555.331C1537.1 555.305 1541.05 552.675 1543.3 554.791C1543.41 554.894 1543.51 555.005 1543.6 555.124L1542.72 558.376Z" fill="black"/>
<path opacity="0.1" d="M1551.31 556.873L1543.92 556.264L1543.31 556.147L1543.59 555.128C1543.49 555.01 1543.39 554.898 1543.28 554.796L1544.17 554.882L1550.22 555.469L1551.31 556.873Z" fill="black"/>
</g>
<path d="M1543.73 554.113C1541.43 551.114 1537.06 553.576 1536.34 554.005L1535.22 553.897C1534.24 552.872 1531.23 550.147 1528.4 552.151L1528.28 552.239L1528.11 556.084L1528.23 556.176C1529.05 556.78 1529.97 557.235 1530.96 557.517C1531.59 557.694 1532.25 557.725 1532.89 557.609C1533.36 557.504 1533.81 557.3 1534.19 557.012C1534.58 556.724 1534.89 556.359 1535.11 555.942L1535.7 555.98L1536.13 555.901C1536.22 556.344 1536.4 556.764 1536.67 557.133C1536.94 557.502 1537.29 557.812 1537.69 558.042C1539.64 559.096 1542.47 558.042 1542.59 558.021L1542.74 557.967L1543.78 554.247L1543.73 554.113ZM1542.25 557.496C1541.68 557.684 1539.5 558.3 1538.03 557.496C1537.67 557.277 1537.36 556.981 1537.14 556.629C1536.91 556.278 1536.77 555.882 1536.73 555.472L1536.68 555.167L1535.73 555.355L1534.78 555.297L1534.69 555.472C1534.52 555.852 1534.26 556.19 1533.93 556.459C1533.6 556.727 1533.21 556.92 1532.79 557.021C1531.16 557.359 1529.26 556.142 1528.77 555.796L1528.91 552.547C1531.37 550.96 1534.08 553.534 1534.86 554.376L1534.94 554.463L1536.53 554.613L1536.63 554.551C1536.67 554.526 1540.61 551.989 1542.85 554.03C1542.96 554.129 1543.07 554.236 1543.16 554.351L1542.25 557.496Z" fill="#472727"/>
<path d="M1550.9 557.095L1544.35 556.265L1543.81 556.106L1544.05 554.717C1543.97 554.556 1543.88 554.404 1543.78 554.264L1544.57 554.382L1549.95 555.182L1550.9 557.095Z" fill="#472727"/>
<path d="M1501.04 602.377H1371.41V654.736H1501.04V602.377Z" fill="#6F7D95"/>
<path d="M1431.24 687.283C1450.91 687.283 1466.85 669.86 1466.85 648.368C1466.85 626.876 1450.91 609.453 1431.24 609.453C1411.57 609.453 1395.62 626.876 1395.62 648.368C1395.62 669.86 1411.57 687.283 1431.24 687.283Z" fill="#4B5C7A"/>
<path opacity="0.05" d="M1431.24 687.283C1450.91 687.283 1466.85 669.86 1466.85 648.368C1466.85 626.876 1450.91 609.453 1431.24 609.453C1411.57 609.453 1395.62 626.876 1395.62 648.368C1395.62 669.86 1411.57 687.283 1431.24 687.283Z" fill="black"/>
<path d="M1438.36 687.283C1458.03 687.283 1473.98 669.86 1473.98 648.368C1473.98 626.876 1458.03 609.453 1438.36 609.453C1418.69 609.453 1402.75 626.876 1402.75 648.368C1402.75 669.86 1418.69 687.283 1438.36 687.283Z" fill="#4B5C7A"/>
<path opacity="0.05" d="M1438.36 664.641C1447.02 664.641 1454.03 657.672 1454.03 649.075C1454.03 640.478 1447.02 633.509 1438.36 633.509C1429.71 633.509 1422.69 640.478 1422.69 649.075C1422.69 657.672 1429.71 664.641 1438.36 664.641Z" fill="black"/>
<path d="M1438.36 653.321C1440.72 653.321 1442.63 651.103 1442.63 648.368C1442.63 645.632 1440.72 643.415 1438.36 643.415C1436 643.415 1434.09 645.632 1434.09 648.368C1434.09 651.103 1436 653.321 1438.36 653.321Z" stroke="#6F7D95" stroke-width="2" stroke-miterlimit="10"/>
<path d="M1438.36 640.585C1439.15 640.585 1439.79 640.268 1439.79 639.877C1439.79 639.487 1439.15 639.17 1438.36 639.17C1437.57 639.17 1436.94 639.487 1436.94 639.877C1436.94 640.268 1437.57 640.585 1438.36 640.585Z" fill="#6F7D95"/>
<path d="M1445.41 643.586C1445.92 643.163 1445.98 642.411 1445.56 641.907C1445.13 641.403 1444.38 641.337 1443.87 641.76C1443.36 642.183 1443.29 642.935 1443.72 643.439C1444.15 643.943 1444.9 644.009 1445.41 643.586Z" fill="#6F7D95"/>
<path d="M1448.27 649.358C1448.39 648.71 1447.95 648.092 1447.3 647.977C1446.65 647.863 1446.03 648.296 1445.91 648.944C1445.8 649.592 1446.23 650.211 1446.88 650.325C1447.54 650.439 1448.16 650.006 1448.27 649.358Z" fill="#6F7D95"/>
<path d="M1444.26 656.214C1444.84 655.885 1445.03 655.156 1444.7 654.586C1444.37 654.016 1443.64 653.82 1443.06 654.149C1442.49 654.479 1442.29 655.208 1442.62 655.778C1442.95 656.348 1443.69 656.543 1444.26 656.214Z" fill="#6F7D95"/>
<path d="M1437.94 656.859C1438.17 656.241 1437.85 655.557 1437.23 655.331C1436.6 655.106 1435.92 655.425 1435.69 656.044C1435.46 656.662 1435.78 657.346 1436.41 657.572C1437.03 657.797 1437.72 657.478 1437.94 656.859Z" fill="#6F7D95"/>
<path d="M1431.85 653.178C1432.47 652.953 1432.79 652.269 1432.56 651.65C1432.34 651.032 1431.65 650.713 1431.03 650.938C1430.4 651.163 1430.08 651.847 1430.31 652.466C1430.53 653.084 1431.22 653.403 1431.85 653.178Z" fill="#6F7D95"/>
<path d="M1432.41 645.732C1432.74 645.161 1432.54 644.432 1431.97 644.103C1431.39 643.774 1430.66 643.969 1430.33 644.54C1430 645.11 1430.19 645.839 1430.77 646.168C1431.34 646.497 1432.07 646.302 1432.41 645.732Z" fill="#6F7D95"/>
<path d="M1698.61 618.462C1697.35 626.997 1693.84 636.34 1693.84 636.34C1693.87 635.757 1693.88 635.182 1693.89 634.614C1693.89 633.88 1693.89 633.155 1693.89 632.43C1693.44 608.905 1680.36 594.39 1671.92 587.441C1669.72 585.609 1667.36 583.978 1664.87 582.566H1687.81C1687.81 582.566 1696.83 600.619 1698.71 609.459C1699.26 611.94 1699.1 615.142 1698.61 618.462Z" fill="#FF4D52"/>
<path opacity="0.05" d="M1698.61 618.462C1697.35 626.997 1693.84 636.34 1693.84 636.34C1693.87 635.757 1693.88 635.182 1693.89 634.614C1693.89 633.88 1693.89 633.155 1693.89 632.43C1693.44 608.905 1680.36 594.39 1671.92 587.441C1669.72 585.609 1667.36 583.978 1664.87 582.566H1687.81C1687.81 582.566 1696.83 600.619 1698.71 609.459C1699.26 611.94 1699.1 615.142 1698.61 618.462Z" fill="black"/>
<path d="M1659.88 649.075C1675.22 649.075 1687.66 635.771 1687.66 619.358C1687.66 602.946 1675.22 589.642 1659.88 589.642C1644.54 589.642 1632.1 602.946 1632.1 619.358C1632.1 635.771 1644.54 649.075 1659.88 649.075Z" fill="#4B5C7A"/>
<path opacity="0.05" d="M1659.88 649.075C1675.22 649.075 1687.66 635.771 1687.66 619.358C1687.66 602.946 1675.22 589.642 1659.88 589.642C1644.54 589.642 1632.1 602.946 1632.1 619.358C1632.1 635.771 1644.54 649.075 1659.88 649.075Z" fill="black"/>
<path d="M1665.58 649.075C1680.92 649.075 1693.36 635.771 1693.36 619.358C1693.36 602.946 1680.92 589.642 1665.58 589.642C1650.24 589.642 1637.8 602.946 1637.8 619.358C1637.8 635.771 1650.24 649.075 1665.58 649.075Z" fill="#4B5C7A"/>
<path opacity="0.05" d="M1664.87 632.094C1671.95 632.094 1677.69 626.392 1677.69 619.358C1677.69 612.325 1671.95 606.623 1664.87 606.623C1657.79 606.623 1652.04 612.325 1652.04 619.358C1652.04 626.392 1657.79 632.094 1664.87 632.094Z" fill="black"/>
<path d="M1665.58 622.189C1667.55 622.189 1669.14 620.605 1669.14 618.651C1669.14 616.697 1667.55 615.113 1665.58 615.113C1663.61 615.113 1662.02 616.697 1662.02 618.651C1662.02 620.605 1663.61 622.189 1665.58 622.189Z" stroke="#6F7D95" stroke-width="2" stroke-miterlimit="10"/>
<path d="M1664.87 613.698C1665.65 613.698 1666.29 613.381 1666.29 612.991C1666.29 612.6 1665.65 612.283 1664.87 612.283C1664.08 612.283 1663.44 612.6 1663.44 612.991C1663.44 613.381 1664.08 613.698 1664.87 613.698Z" fill="#6F7D95"/>
<path d="M1670.62 615.262C1671 614.94 1671.05 614.368 1670.73 613.985C1670.4 613.601 1669.83 613.551 1669.44 613.873C1669.06 614.195 1669 614.767 1669.33 615.15C1669.65 615.534 1670.23 615.584 1670.62 615.262Z" fill="#6F7D95"/>
<path d="M1672.79 619.656C1672.88 619.162 1672.55 618.692 1672.05 618.605C1671.55 618.518 1671.08 618.847 1670.99 619.341C1670.9 619.834 1671.24 620.304 1671.73 620.391C1672.23 620.478 1672.7 620.149 1672.79 619.656Z" fill="#6F7D95"/>
<path d="M1669.74 624.869C1670.18 624.619 1670.33 624.064 1670.08 623.63C1669.83 623.196 1669.27 623.048 1668.83 623.298C1668.4 623.549 1668.25 624.103 1668.5 624.537C1668.75 624.971 1669.31 625.119 1669.74 624.869Z" fill="#6F7D95"/>
<path d="M1664.94 625.358C1665.11 624.888 1664.87 624.367 1664.39 624.196C1663.92 624.025 1663.39 624.267 1663.22 624.738C1663.05 625.209 1663.29 625.729 1663.77 625.9C1664.24 626.072 1664.76 625.829 1664.94 625.358Z" fill="#6F7D95"/>
<path d="M1660.3 622.555C1660.77 622.384 1661.02 621.863 1660.84 621.393C1660.67 620.922 1660.15 620.679 1659.67 620.85C1659.2 621.022 1658.95 621.542 1659.13 622.013C1659.3 622.484 1659.82 622.726 1660.3 622.555Z" fill="#6F7D95"/>
<path d="M1660.73 616.893C1660.98 616.459 1660.83 615.904 1660.39 615.654C1659.96 615.403 1659.4 615.552 1659.15 615.986C1658.89 616.42 1659.04 616.974 1659.48 617.225C1659.92 617.475 1660.48 617.327 1660.73 616.893Z" fill="#6F7D95"/>
<path d="M1285 652.45L1281.66 626.434H1321.18L1341.49 644.388L1331.52 667.472C1331.52 667.472 1291.29 660.877 1285 652.45Z" fill="#FF4D52"/>
<path opacity="0.05" d="M1341.49 644.385L1331.52 667.472C1331.52 667.472 1291.27 660.877 1284.97 652.448L1284.83 651.315L1281.76 627.255L1281.73 627.016L1281.66 626.434H1321.18L1341.49 644.385Z" fill="black"/>
<path d="M1503.89 547.192V555.653C1503.89 555.653 1483.37 572.226 1478.49 587.862C1477.64 590.401 1477.31 593.085 1477.54 595.752C1479.4 613.04 1424.12 581.769 1424.12 581.769L1426.57 580.583C1439.28 574.507 1497.29 546.86 1503.89 547.192Z" fill="#7597CE"/>
<path d="M1549.85 588.226C1549.85 588.226 1569.1 578.896 1572.18 571.991C1572.6 571.065 1572.99 570.13 1573.45 569.222C1575.36 565.435 1579.37 556.552 1577.35 552.287C1574.75 546.786 1583.67 553.021 1583.67 553.021L1578.46 579.052L1565.83 586.009L1549.48 588.226" fill="#FF4D52"/>
<path opacity="0.05" d="M1549.85 588.226C1549.85 588.226 1569.1 578.896 1572.18 571.991C1572.6 571.065 1572.99 570.13 1573.45 569.222C1575.36 565.435 1579.37 556.552 1577.35 552.287C1574.75 546.786 1583.67 553.021 1583.67 553.021L1578.46 579.052L1565.83 586.009L1549.48 588.226" fill="black"/>
<path opacity="0.05" d="M1341.49 644.383L1331.52 667.472C1331.52 667.472 1291.28 660.876 1284.99 652.447L1284.84 651.313C1285 651.204 1285.18 651.091 1285.35 650.983C1285.35 650.983 1297.54 660.511 1325.24 662.714C1325.24 662.714 1341.88 649.518 1314.9 634.863C1314.9 634.863 1291.43 635.593 1281.76 627.255L1281.66 627.168L1281.73 627.016C1281.8 626.892 1281.9 626.697 1282.04 626.434H1321.17L1341.49 644.383Z" fill="black"/>
<path opacity="0.05" d="M1477.29 595.532C1479.13 613.545 1424.12 580.972 1424.12 580.972L1426.56 579.736C1428.18 581.526 1434.65 587.564 1447.58 586.909C1455.9 586.487 1468.53 586.873 1478.25 587.314C1477.39 589.957 1477.07 592.753 1477.29 595.532Z" fill="black"/>
<path opacity="0.05" d="M1501.04 602.377V654.736H1476.96C1478.55 642.557 1477.63 624.804 1462.18 614.627C1456.42 610.856 1449.73 608.752 1442.85 608.547C1435.97 608.342 1429.17 610.043 1423.19 613.464C1413.07 619.252 1401.74 631.02 1394.55 654.736H1371.41V602.377H1501.04Z" fill="black"/>
<path opacity="0.05" d="M1698.61 618.351C1697.69 624.108 1696.2 629.699 1693.89 634.463C1693.59 635.104 1693.27 635.73 1692.92 636.34C1692.98 636.126 1693.4 634.637 1693.89 632.294C1696.28 620.885 1700.37 589.316 1672.98 587.513C1672.62 587.491 1672.27 587.469 1671.92 587.456C1669.72 585.62 1667.36 583.983 1664.87 582.566H1687.81C1687.81 582.566 1696.83 600.563 1698.71 609.377C1699.26 611.85 1699.1 615.042 1698.61 618.351Z" fill="black"/>
<path d="M1693.55 636.161C1693.9 634.908 1706.31 589.684 1674.07 587.519C1641.38 585.324 1637.34 609.84 1633.67 643.142C1633.67 643.142 1530.46 650.825 1474.98 666.929C1474.98 666.929 1488.3 630.574 1463.23 614.131C1457.48 610.389 1450.81 608.301 1443.94 608.097C1437.08 607.894 1430.3 609.582 1424.34 612.977C1411.97 620.014 1397.8 635.971 1391.61 671.684H1329.89C1329.89 671.684 1318.13 672.418 1314.09 666.912C1314.09 666.912 1297.54 667.277 1287.28 658.496C1287.28 658.496 1276.26 656.3 1285.08 650.812C1285.08 650.812 1297.57 660.326 1325.12 662.526C1325.12 662.526 1341.66 649.35 1314.83 634.717C1314.83 634.717 1291.31 635.45 1281.77 627.033C1281.77 627.033 1285.12 620.131 1292.76 611.78C1303.22 600.324 1316.54 591.84 1331.36 587.194C1341.35 584.117 1351.76 582.621 1362.21 582.76L1427.05 580.747C1427.05 580.747 1433.31 588.799 1448.35 588.066C1463.39 587.333 1492.79 589.163 1492.79 589.163H1493.09L1553.58 586.434C1555.32 586.19 1557.04 585.828 1558.73 585.35C1567.5 582.977 1584.13 575.779 1581.13 555.679L1676.27 561.536C1679.85 561.7 1683.42 562.202 1686.91 563.033C1691.79 564.283 1696.26 566.565 1695 570.686C1692.43 579.103 1699.41 580.2 1699.41 580.2C1699.41 580.2 1699.56 581.324 1699.74 583.276C1700.61 592.482 1702.32 620.161 1693.55 636.161Z" fill="#0096AE"/>
<path opacity="0.05" d="M1402.75 595.302C1402.75 595.302 1362.35 595.676 1335.79 619.358H1350.75C1350.75 619.358 1392.64 608.462 1402.74 599.819L1402.75 595.302Z" fill="black"/>
<path d="M1401.32 595.302C1401.32 595.302 1361.79 595.654 1335.79 617.943H1350.44C1350.44 617.943 1391.43 607.688 1401.31 599.554L1401.32 595.302Z" fill="#FFEC9F"/>
<path opacity="0.05" d="M1331.52 588.226V597.613L1298.21 612.283L1293.06 611.691C1303.47 600.759 1316.75 592.661 1331.52 588.226Z" fill="black"/>
<path d="M1331.52 586.811V596.752L1298.21 612.283L1293.06 611.656C1303.47 600.079 1316.75 591.506 1331.52 586.811Z" fill="#FFEC9F"/>
<path opacity="0.05" d="M1378.09 632.094C1378.09 632.094 1360.39 642.702 1358.59 666.056H1368.7C1368.7 666.056 1372.67 640.593 1384.23 632.094H1378.09Z" fill="black"/>
<path opacity="0.05" d="M1590.79 632.507L1497.66 643.415C1497.66 643.415 1491.5 604.526 1492.63 589.397L1553.02 586.685C1554.76 586.446 1556.47 586.091 1558.15 585.62V589.229L1603.62 578.321C1603.62 578.321 1611.32 589.591 1590.79 632.507Z" fill="black"/>
<path d="M1580.82 544.495C1580.82 544.495 1600.54 541.982 1609.31 558.51L1581.1 557.44L1580.82 544.495Z" fill="#008EA5"/>
<path opacity="0.05" d="M1608.17 564.896C1607.4 567.41 1607.98 570.175 1612.46 572.088C1616.19 573.683 1620.57 571.837 1621.84 567.872C1622.59 565.56 1622.08 562.943 1618.06 560.814C1614.04 558.686 1609.52 560.505 1608.17 564.896Z" fill="black"/>
<path d="M1283.08 632.094C1283.08 632.094 1306.31 644.103 1322.97 639.557" stroke="#FF4D52" stroke-miterlimit="10"/>
<path d="M1283.08 639.17C1283.08 639.17 1298.17 649.748 1328.67 647.29" stroke="#FF4D52" stroke-miterlimit="10"/>
<path d="M1284.51 644.83C1284.51 644.83 1299.43 658.124 1330.09 653.911" stroke="#FF4D52" stroke-miterlimit="10"/>
<path opacity="0.05" d="M1607.88 557.095C1607.88 557.095 1595.97 567.686 1585.09 572.475C1585.09 572.475 1601.61 575.501 1607.88 557.095Z" fill="black"/>
<path opacity="0.1" d="M1478.25 587.888C1478.25 587.888 1536.07 594.713 1557.95 588.331C1557.95 588.331 1559.12 589.298 1552.15 585.396L1478.25 587.888Z" fill="black"/>
<path opacity="0.05" d="M1699.06 582.566C1695.43 580.244 1689.68 575.426 1690.47 570.065C1690.86 567.378 1688.91 564.865 1686.23 562.755C1691.12 563.977 1695.58 566.21 1694.32 570.243C1691.76 578.478 1698.72 579.552 1698.72 579.552C1698.72 579.552 1698.87 580.656 1699.06 582.566Z" fill="black"/>
<path d="M1388.24 596.942V599.106H1388.94V597.663H1391.48V599.106H1392.18V596.947L1388.24 596.942Z" fill="#E82127"/>
<path d="M1388.86 596.247H1391.55C1391.72 596.205 1391.89 596.116 1392.01 595.988C1392.14 595.861 1392.23 595.701 1392.28 595.526H1388.14C1388.18 595.701 1388.27 595.861 1388.4 595.988C1388.53 596.115 1388.69 596.205 1388.87 596.247" fill="#E82127"/>
<path d="M1386.12 599.106C1386.27 599.047 1386.41 598.952 1386.52 598.83C1386.62 598.707 1386.7 598.56 1386.73 598.402H1383.6V595.526H1382.9V599.106H1386.12" fill="#E82127"/>
<path d="M1377.68 596.23H1380.16C1380.34 596.185 1380.5 596.098 1380.63 595.975C1380.77 595.852 1380.87 595.697 1380.93 595.526H1376.97V597.625H1380.2V598.367H1377.67C1377.47 598.418 1377.29 598.509 1377.14 598.634C1376.98 598.759 1376.86 598.916 1376.77 599.093H1380.88V596.934H1377.66V596.225" fill="#E82127"/>
<path d="M1371.55 596.243H1374.24C1374.42 596.201 1374.58 596.111 1374.71 595.984C1374.83 595.857 1374.93 595.697 1374.97 595.521H1370.83C1370.87 595.697 1370.96 595.856 1371.09 595.984C1371.22 596.111 1371.38 596.2 1371.56 596.243" fill="#E82127"/>
<path d="M1371.55 597.655H1374.24C1374.42 597.613 1374.58 597.524 1374.71 597.397C1374.84 597.27 1374.93 597.109 1374.97 596.933H1370.83C1370.87 597.109 1370.96 597.269 1371.09 597.396C1371.22 597.523 1371.38 597.613 1371.56 597.655" fill="#E82127"/>
<path d="M1371.55 599.111H1374.24C1374.42 599.068 1374.58 598.979 1374.71 598.852C1374.83 598.725 1374.93 598.564 1374.97 598.389H1370.83C1370.87 598.564 1370.96 598.724 1371.09 598.851C1371.22 598.978 1371.38 599.068 1371.56 599.111" fill="#E82127"/>
<path d="M1364.57 595.53C1364.61 595.702 1364.7 595.859 1364.83 595.985C1364.96 596.11 1365.12 596.199 1365.29 596.243H1366.42L1366.48 596.264V599.097H1367.18V596.264L1367.25 596.243H1368.38C1368.55 596.198 1368.71 596.108 1368.84 595.983C1368.97 595.858 1369.06 595.702 1369.11 595.53H1364.57Z" fill="#E82127"/>
<path opacity="0.1" d="M1405.6 616.528C1403.75 615.228 1400.26 613.204 1397.05 613.651L1397.61 611.501C1397.61 611.501 1402.56 610.076 1404.31 611.501C1404.95 612.02 1405.39 614.062 1405.6 616.528Z" fill="black"/>
<ellipse cx="1641.5" cy="585.958" rx="4.5" ry="3.9734" fill="#0E0D0D"/>
<path d="M1751 584.964C1736.73 632.473 1744.05 618.482 1645 584.964" stroke="#555252" stroke-width="2"/>
<path d="M1831.74 507.483H1752V605.825V704.166H1835L1831.74 507.483Z" fill="#FF4F5A" stroke="black"/>
<path d="M1867 506.489H1831V704.166H1867V506.489Z" fill="#BC343E"/>
<rect x="1770" y="537.283" width="46" height="50.6609" fill="white"/>
<path d="M1795.17 549.203H1784L1793.67 564.615H1787.5L1797.5 582.977L1793.67 568.713H1803L1795.17 549.203Z" fill="#01A27C"/>
<rect x="1764" y="631.658" width="53" height="61.5745" fill="#FF4F5A" stroke="black" stroke-width="2"/>
<ellipse cx="1811.5" cy="654.499" rx="1.5" ry="0.993351" fill="#C4C4C4"/>
<path d="M1742 463.775L1790.26 395.234H1907L1858.74 463.775H1742Z" fill="#385A64" stroke="#555252" stroke-width="11"/>
<path d="M1826.84 399.465L1783.7 457.169" stroke="#FDF9F9" stroke-opacity="0.55" stroke-width="2"/>
<line y1="-1" x2="72.05" y2="-1" transform="matrix(-0.598808 0.800893 -0.804701 -0.593681 1863.66 399.15)" stroke="#FDF9F9" stroke-opacity="0.55" stroke-width="2"/>
<line x1="1878" y1="428.021" x2="1772" y2="428.021" stroke="#FDF9F9" stroke-opacity="0.55" stroke-width="2"/>
<line x1="1767.5" y1="465.762" x2="1767.5" y2="506.489" stroke="black" stroke-width="9"/>
<line x1="1852.5" y1="465.762" x2="1852.5" y2="506.489" stroke="black" stroke-width="9"/>
<path d="M317.5 466.259C316 464.769 294.611 440.114 287.5 462.782C279.351 436.227 301.797 432.449 319 440.431C332.268 446.588 326.928 469.484 319 477.682C319 477.682 319 467.749 317.5 466.259Z" fill="#926E56"/>
<path d="M315 463.279C307.834 447.053 300.412 449.413 288.5 455.828C288.5 455.828 288.408 455.995 288.273 456.325C287.882 457.284 288.228 459.127 288.274 462.782C288.302 465.081 289.044 470.384 290 473.709C291.202 477.887 291.68 478.854 296.5 483.642C301.32 488.431 307.5 486.622 307.5 486.622V493.576L317.5 498.543L321.5 487.616L319.5 484.139V468.742C321 466.613 320.295 462.22 319 460.795C317.274 458.897 315 463.279 315 463.279Z" fill="#EDAD8A"/>
<path d="M1137.55 244.824C1129.55 225.95 1097.55 207.077 1099.05 208.567C1100.55 210.057 1104.85 241.297 1119.55 255.751C1130.55 266.564 1144.08 260.221 1137.55 244.824Z" fill="#009545" stroke="#268850" stroke-width="2"/>
<path d="M1163.01 257.028C1179.25 244.416 1189.21 208.796 1188.15 210.624C1187.1 212.453 1157.87 224.752 1147.68 242.633C1140.05 256.01 1149.76 267.317 1163.01 257.028Z" fill="#009545" stroke="#268850" stroke-width="2"/>
<ellipse cx="704" cy="81.3352" rx="40" ry="35.7606" fill="#FFEC9F"/>
<path d="M1790.3 165.282C1743.53 171.575 1717.08 171.771 1669.26 165.282C1650.23 140.78 1650.71 120.947 1689.66 117.964C1715.72 49.6364 1763.36 96.4809 1767.25 125.423C1788.83 118.56 1805.1 137.573 1790.3 165.282Z" fill="#EBF7F6"/>
<path d="M733.462 168.207C655.417 178.682 611.266 179.009 531.462 168.207C499.707 127.419 500.505 94.4062 565.505 89.4396C609.005 -24.299 688.505 53.679 695.005 101.856C731.005 90.4329 758.171 122.081 733.462 168.207Z" fill="#EBF7F6"/>
<line y1="-2.5" x2="28.4788" y2="-2.5" transform="matrix(0.421366 0.90689 -0.909018 0.416757 673 19.7473)" stroke="#FFEC9F" stroke-width="5"/>
<line y1="-2.5" x2="28.458" y2="-2.5" transform="matrix(-0.260434 0.965492 -0.966355 -0.257212 722.706 15.943)" stroke="#FFEC9F" stroke-width="5"/>
<line x1="773.318" y1="98.7353" x2="744.683" y2="98.7353" stroke="#FFEC9F" stroke-width="5"/>
<line y1="-2.5" x2="28.5703" y2="-2.5" transform="matrix(-0.811949 0.583728 -0.588862 -0.808234 765.6 45.1826)" stroke="#FFEC9F" stroke-width="5"/>
<defs>
<linearGradient id="paint0_linear_93_336" x1="1523.69" y1="650.129" x2="1552.9" y2="540.318" gradientUnits="userSpaceOnUse">
<stop stop-color="#808080" stop-opacity="0.25"/>
<stop offset="0.54" stop-color="#808080" stop-opacity="0.12"/>
<stop offset="1" stop-color="#808080" stop-opacity="0.1"/>
</linearGradient>
</defs>
</svg>
