<svg width="21" height="28" viewBox="0 0 21 28" fill="none" xmlns="http://www.w3.org/2000/svg">
<path d="M14.611 7.45699H20.667C20.7109 7.45739 20.7544 7.44905 20.795 7.43246C20.8355 7.41586 20.8724 7.39135 20.9034 7.36035C20.9344 7.32935 20.9589 7.29248 20.9755 7.25189C20.9921 7.21131 21.0004 7.16783 21 7.12399C21.0012 6.83316 20.938 6.54567 20.8149 6.28217C20.6918 6.01868 20.5119 5.78571 20.288 5.59999L15.21 1.36799C14.8248 1.04849 14.3396 0.874373 13.839 0.875988C13.7744 0.875856 13.7104 0.888492 13.6506 0.913171C13.5909 0.937849 13.5366 0.974085 13.4909 1.0198C13.4451 1.06551 13.4089 1.1198 13.3842 1.17955C13.3596 1.2393 13.3469 1.30334 13.347 1.36799V6.19299C13.347 6.52822 13.4802 6.84972 13.7173 7.08677C13.9543 7.32382 14.2758 7.45699 14.611 7.45699Z" fill="white"/>
<path d="M11.617 6.19898V0.875977H2.89904C2.33462 0.87756 1.79376 1.10248 1.39465 1.50159C0.995545 1.9007 0.770626 2.44155 0.769043 3.00598V25.366C0.770626 25.9304 0.995545 26.4713 1.39465 26.8704C1.79376 27.2695 2.33462 27.4944 2.89904 27.496H18.87C19.4345 27.4944 19.9753 27.2695 20.3744 26.8704C20.7735 26.4713 20.9985 25.9304 21 25.366V9.19398H14.611C13.8173 9.19239 13.0565 8.87631 12.4954 8.31495C11.9342 7.75359 11.6184 6.99272 11.617 6.19898Z" fill="white"/>
</svg>
