<svg width="56" height="56" viewBox="0 0 56 56" fill="none" xmlns="http://www.w3.org/2000/svg">
<path d="M28 56C43.464 56 56 43.464 56 28C56 12.536 43.464 0 28 0C12.536 0 0 12.536 0 28C0 43.464 12.536 56 28 56Z" fill="#33B1F3"/>
<path d="M42.139 21.747C41.9072 21.7459 41.6801 21.8119 41.485 21.937L35.403 25.776C35.3173 25.8298 35.2466 25.9044 35.1975 25.9929C35.1483 26.0814 35.1224 26.1808 35.122 26.282V31.626C35.1224 31.7272 35.1483 31.8267 35.1975 31.9151C35.2466 32.0036 35.3173 32.0782 35.403 32.132L41.485 35.971C41.6815 36.093 41.9077 36.1587 42.139 36.161H43.602C43.6808 36.161 43.7588 36.1455 43.8316 36.1154C43.9044 36.0852 43.9706 36.041 44.0263 35.9853C44.082 35.9296 44.1262 35.8634 44.1563 35.7906C44.1865 35.7178 44.202 35.6398 44.202 35.561V22.347C44.202 22.1879 44.1388 22.0353 44.0263 21.9228C43.9137 21.8102 43.7611 21.747 43.602 21.747H42.139Z" fill="white"/>
<path d="M29.686 37.947H16.327C15.3688 37.9439 14.4507 37.5623 13.7725 36.8854C13.0943 36.2086 12.711 35.2912 12.706 34.333V23.561C12.7094 22.6036 13.0913 21.6863 13.7683 21.0093C14.4453 20.3323 15.3626 19.9504 16.32 19.947H29.679C30.6364 19.9504 31.5537 20.3323 32.2307 21.0093C32.9077 21.6863 33.2896 22.6036 33.293 23.561V34.326C33.2941 35.2843 32.9148 36.2038 32.2386 36.8827C31.5623 37.5616 30.6442 37.9444 29.686 37.947V37.947Z" fill="white"/>
</svg>
