<svg width="16" height="24" viewBox="0 0 16 24" fill="none" xmlns="http://www.w3.org/2000/svg">
<path d="M8.01999 0.0529318C6.46076 -0.00162274 4.91552 0.363882 3.54596 1.1112C2.1764 1.85852 1.03286 2.96019 0.234993 4.30093C0.0736246 4.53877 0.00769148 4.82863 0.0503082 5.11286C0.0929249 5.3971 0.240969 5.65488 0.464993 5.83493L2.41699 7.36093C2.52808 7.44817 2.65543 7.51241 2.79161 7.54992C2.92778 7.58742 3.07007 7.59744 3.21016 7.57938C3.35024 7.56132 3.48534 7.51555 3.60755 7.44474C3.72977 7.37393 3.83666 7.27949 3.92199 7.16693C5.05599 5.70293 5.89699 4.85993 7.66799 4.85993C9.06099 4.85993 10.783 5.78393 10.783 7.17593C10.783 8.22793 9.93999 8.76893 8.56499 9.56393C6.96499 10.4909 4.83999 11.6439 4.83999 14.5299V14.9869C4.83735 15.1319 4.86338 15.2759 4.9166 15.4108C4.96982 15.5457 5.04917 15.6687 5.1501 15.7728C5.25102 15.8768 5.37153 15.9599 5.50469 16.0173C5.63784 16.0746 5.78102 16.1051 5.92599 16.1069H9.20599C9.35096 16.1051 9.49414 16.0746 9.6273 16.0173C9.76046 15.9599 9.88096 15.8768 9.98189 15.7728C10.0828 15.6687 10.1622 15.5457 10.2154 15.4108C10.2686 15.2759 10.2946 15.1319 10.292 14.9869V14.7179C10.292 12.7179 15.962 12.6349 15.962 7.21793C15.964 3.14493 11.863 0.0529318 8.01999 0.0529318ZM7.56699 17.4809C6.72673 17.5065 5.92945 17.8583 5.34414 18.4617C4.75883 19.0652 4.43148 19.8728 4.43148 20.7134C4.43148 21.5541 4.75883 22.3617 5.34414 22.9651C5.92945 23.5685 6.72673 23.9203 7.56699 23.9459C8.40726 23.9203 9.20454 23.5685 9.78985 22.9651C10.3752 22.3617 10.7025 21.5541 10.7025 20.7134C10.7025 19.8728 10.3752 19.0652 9.78985 18.4617C9.20454 17.8583 8.40726 17.5065 7.56699 17.4809Z" fill="white"/>
</svg>
