<svg width="33" height="19" viewBox="0 0 33 19" fill="none" xmlns="http://www.w3.org/2000/svg">
<path d="M30.139 2.74702C29.9072 2.74587 29.6801 2.81186 29.485 2.93702L23.403 6.77602C23.3173 6.82983 23.2466 6.90443 23.1975 6.9929C23.1483 7.08137 23.1224 7.18083 23.122 7.28202V12.626C23.1224 12.7272 23.1483 12.8267 23.1975 12.9151C23.2466 13.0036 23.3173 13.0782 23.403 13.132L29.485 16.971C29.6815 17.093 29.9077 17.1587 30.139 17.161H31.602C31.6808 17.161 31.7588 17.1455 31.8316 17.1154C31.9044 17.0852 31.9706 17.041 32.0263 16.9853C32.082 16.9296 32.1262 16.8634 32.1563 16.7906C32.1865 16.7178 32.202 16.6398 32.202 16.561V3.34702C32.202 3.18789 32.1388 3.03528 32.0263 2.92276C31.9137 2.81024 31.7611 2.74702 31.602 2.74702H30.139Z" fill="white"/>
<path d="M17.686 18.947H4.32699C3.36883 18.9439 2.4507 18.5623 1.77251 17.8854C1.09433 17.2086 0.711 16.2912 0.705994 15.333V4.56102C0.709419 3.60358 1.09128 2.68634 1.76829 2.00932C2.44531 1.33231 3.36256 0.950447 4.31999 0.947021H17.679C18.6364 0.950447 19.5537 1.33231 20.2307 2.00932C20.9077 2.68634 21.2896 3.60358 21.293 4.56102V15.326C21.2941 16.2843 20.9148 17.2038 20.2386 17.8827C19.5623 18.5616 18.6442 18.9444 17.686 18.947Z" fill="white"/>
</svg>
