<svg xmlns="http://www.w3.org/2000/svg" xmlns:xlink="http://www.w3.org/1999/xlink" width="376" height="103.257" viewBox="0 0 376 103.257">
  <defs>
    <clipPath id="clip-path">
      <rect id="Rectangle_1645" data-name="Rectangle 1645" width="124.124" height="25.757" transform="translate(0 0)" fill="none"/>
    </clipPath>
  </defs>
  <g id="Group_16121" data-name="Group 16121" transform="translate(-400 -337.816)">
    <text id="ecodesign" transform="translate(588 421.573)" fill="#125a40" font-size="74" font-family="GothamRounded-Light !important, Gotham Rounded" font-weight="300"><tspan x="-187.257" y="0">e</tspan><tspan y="0" font-family="GothamRounded-Book, Gotham Rounded" font-weight="400">co</tspan><tspan y="0" fill="#009df0" font-family="GothamRounded-Book, Gotham Rounded" font-weight="400">de</tspan><tspan y="0" fill="#009df0">sign</tspan></text>
    <path id="Path_10769" data-name="Path 10769" d="M3532.26,505.089V515h165.319v-9.911" transform="translate(-3077 -75.427)" fill="none" stroke="#125a40" stroke-linecap="round" stroke-width="3"/>
    <path id="Path_10770" data-name="Path 10770" d="M3532.26,514.124v-9.034h229.857v9.034" transform="translate(-2992 -145.978)" fill="none" stroke="#009df0" stroke-linecap="round" stroke-width="3"/>
    <g id="Group_16120" data-name="Group 16120" transform="translate(405.743 337.816)">
      <g id="Group_16119" data-name="Group 16119" transform="translate(0 0)" clip-path="url(#clip-path)">
        <path id="Path_10771" data-name="Path 10771" d="M66.313,13.677H63.184v2.706h3.221c1.2,0,1.928-.423,1.928-1.334,0-.872-.62-1.373-2.02-1.373M17.981,8.885H15.274v3.538h2.759c1.32,0,2.073-.7,2.073-1.742v-.04c0-1.162-.805-1.756-2.126-1.756m49.652,1.241c0-.872-.62-1.307-1.769-1.307h-2.68v2.6h2.508c1.2,0,1.941-.383,1.941-1.294M30.892,13.612h3.419L32.6,9.532ZM35.315,16H29.889l-.858,2.034a1.3,1.3,0,0,1-2.508-.4,1.545,1.545,0,0,1,.158-.621l4.3-9.7a1.683,1.683,0,0,1,1.65-1.069A1.7,1.7,0,0,1,34.3,7.314l4.291,9.7a1.545,1.545,0,0,1,.158.621,1.328,1.328,0,0,1-2.561.4Zm83.528,9.757c3.7,0,5.281-1.584,5.281-5.281V5.281c0-3.7-1.584-5.281-5.281-5.281H92.624L81.284,13.65l-.423-.2,1.056-4.673a2.307,2.307,0,0,0-.528-.053,3.694,3.694,0,0,0-3.709,3.841v.04a3.746,3.746,0,0,0,3.736,3.868,3.672,3.672,0,0,0,3.7-3.829v-.039a3.838,3.838,0,0,0-.159-1.122l2.311-1.822a6.49,6.49,0,0,1,.687,2.9v.04a6.551,6.551,0,0,1-13.1.039v-.039a6.367,6.367,0,0,1,6.562-6.377,9.289,9.289,0,0,1,1.069.066L83.937,0H5.281C1.584,0,0,1.584,0,5.281v15.2c0,3.7,1.584,5.281,5.281,5.281ZM55.249,17.493a1.347,1.347,0,1,1-2.693,0V11.367l-2.376,3.67a1.271,1.271,0,0,1-2.257,0L45.586,11.42v6.073a1.347,1.347,0,1,1-2.693,0V7.617A1.331,1.331,0,0,1,44.358,6.35a1.608,1.608,0,0,1,1.492.792l3.234,5.268,3.234-5.268a1.566,1.566,0,0,1,1.465-.792,1.331,1.331,0,0,1,1.465,1.267ZM66.273,6.429a4.479,4.479,0,0,1,3.234,1.109,2.857,2.857,0,0,1,.832,2.086,2.872,2.872,0,0,1-1.624,2.693,3.015,3.015,0,0,1,2.311,3.036c0,2.3-1.835,3.419-4.621,3.419H61.89a1.272,1.272,0,0,1-1.347-1.386V7.815A1.272,1.272,0,0,1,61.89,6.429ZM12.582,7.815A1.253,1.253,0,0,1,13.9,6.429h4.3a4.97,4.97,0,0,1,3.6,1.254,3.943,3.943,0,0,1,1.056,2.825v.026A3.786,3.786,0,0,1,20.4,14.3l1.861,2.257a1.544,1.544,0,0,1,.462,1.017,1.368,1.368,0,0,1-1.373,1.307,1.483,1.483,0,0,1-1.254-.713l-2.64-3.341H15.274v2.667a1.272,1.272,0,0,1-1.346,1.386,1.273,1.273,0,0,1-1.347-1.386ZM93.971,18.773a1.273,1.273,0,0,1-1.347-1.386V7.723a1.347,1.347,0,1,1,2.693,0V16.3h5.043a1.234,1.234,0,0,1,0,2.469Zm12.568,0a1.272,1.272,0,0,1-1.347-1.386V7.723a1.347,1.347,0,1,1,2.694,0V16.3h5.056a1.234,1.234,0,0,1,0,2.469Z" transform="translate(0 0)" fill="#009df0"/>
      </g>
    </g>
  </g>
</svg>
